<?xml version="1.0" encoding="UTF-8"?>
<svg version="1.1" xmlns="http://www.w3.org/2000/svg" width="500" height="500">
<path d="M0 0 C1.72065674 0.00845947 1.72065674 0.00845947 3.47607422 0.01708984 C11.78362643 0.13612272 19.23481814 0.75490207 27.1875 3.3125 C27.82300781 3.51117676 28.45851563 3.70985352 29.11328125 3.91455078 C43.39656164 8.47195502 54.35290517 15.94023482 65.1875 26.3125 C66.05375 27.116875 66.92 27.92125 67.8125 28.75 C87.43744649 49.92428437 93.29630278 74.50143176 92.4140625 102.80664062 C91.90503632 110.68338188 89.85732848 117.92382146 87.1875 125.3125 C86.7646875 126.54742187 86.341875 127.78234375 85.90625 129.0546875 C77.5444219 150.88294807 59.74365505 167.49870572 38.70898438 176.98950195 C14.84855956 187.36533942 -9.81160907 188.18967371 -34.01245117 178.7800293 C-45.2408872 174.20086566 -54.76500825 168.40839472 -63.8125 160.3125 C-64.72902344 159.53712891 -64.72902344 159.53712891 -65.6640625 158.74609375 C-80.62184835 145.17066252 -90.65556958 123.19453331 -92.02856445 103.15966797 C-92.87760273 79.1756335 -89.78773824 56.90972535 -74.8125 37.3125 C-74.21824219 36.50554687 -73.62398437 35.69859375 -73.01171875 34.8671875 C-58.84855942 16.30465003 -38.71414499 4.52058621 -15.73364258 0.67211914 C-10.49137003 0.02674785 -5.276354 -0.02722577 0 0 Z M-23.8125 45.3125 C-23.8125 45.9725 -23.8125 46.6325 -23.8125 47.3125 C-24.8953125 47.374375 -24.8953125 47.374375 -26 47.4375 C-29.90270928 48.65167622 -31.82464355 50.87501538 -33.8125 54.3125 C-35.61078702 58.79601198 -36.41080667 62.70123435 -34.6875 67.3125 C-33.16527679 70.40969107 -33.16527679 70.40969107 -30.75 71.125 C-29.7909375 71.2178125 -29.7909375 71.2178125 -28.8125 71.3125 C-28.1525 71.9725 -27.4925 72.6325 -26.8125 73.3125 C-26.85890625 72.27609375 -26.9053125 71.2396875 -26.953125 70.171875 C-26.99065275 68.80211221 -27.02705184 67.43231818 -27.0625 66.0625 C-27.09601563 65.38058594 -27.12953125 64.69867188 -27.1640625 63.99609375 C-27.22829747 60.68799254 -27.08156457 58.69944047 -25.171875 55.953125 C-18.99768104 51.65981132 -13.17861205 52.24827678 -5.95703125 52.6328125 C-2.74992691 52.63127345 -2.74992691 52.63127345 -0.87890625 50.46484375 C0.39683821 48.32922288 0.39683821 48.32922288 0.0625 45.75 C-1.11417144 42.41933349 -1.11417144 42.41933349 -3.8125 40.3125 C-11.31475861 39.22126238 -17.09620645 42.17822968 -23.8125 45.3125 Z M26.1875 61.3125 C26.8475 61.9725 27.5075 62.6325 28.1875 63.3125 C28.1875 62.6525 28.1875 61.9925 28.1875 61.3125 C27.5275 61.3125 26.8675 61.3125 26.1875 61.3125 Z M32.1875 65.3125 C32.6825 66.7975 32.6825 66.7975 33.1875 68.3125 C32.5275 68.9725 31.8675 69.6325 31.1875 70.3125 C31.084375 71.570625 30.98125 72.82875 30.875 74.125 C30.52567395 77.62461188 30.20303825 78.29369054 27.8125 81.1875 C23.53959659 84.64651705 21.09603066 85.62137145 15.65625 86.09375 C14.37105469 86.21363281 13.08585937 86.33351563 11.76171875 86.45703125 C9.72103159 86.63655663 7.68010179 86.81314018 5.63916016 86.98974609 C3.66507686 87.16341213 1.69189185 87.34719564 -0.28125 87.53125 C-1.46138672 87.63373047 -2.64152344 87.73621094 -3.85742188 87.84179688 C-6.99098219 88.13038627 -6.99098219 88.13038627 -9.8125 90.3125 C-12.14449388 90.39155064 -14.48082622 90.40048769 -16.8125 90.3125 C-16.8125 90.9725 -16.8125 91.6325 -16.8125 92.3125 C-17.69292969 92.60382813 -18.57335937 92.89515625 -19.48046875 93.1953125 C-28.61131563 96.34987839 -28.61131563 96.34987839 -34.8125 103.3125 C-35.4621875 104.240625 -35.4621875 104.240625 -36.125 105.1875 C-37.24444054 108.64758895 -37.04669973 111.68240424 -36.8125 115.3125 C-36.1525 115.9725 -35.4925 116.6325 -34.8125 117.3125 C-34.8125 117.9725 -34.8125 118.6325 -34.8125 119.3125 C-31.33251493 122.94883539 -31.33251493 122.94883539 -26.8125 124.3125 C-25.91525315 122.66919053 -25.91525315 122.66919053 -25.8125 120.3125 C-26.84806151 118.59735125 -27.88456995 116.88272938 -28.93359375 115.17578125 C-30.46750382 111.9238919 -29.8621186 109.64658261 -28.8125 106.3125 C-25.85477442 102.61534302 -23.27534757 100.75885352 -18.8125 99.3125 C-16.12109375 99.15234375 -16.12109375 99.15234375 -13.25 99.25 C-7.03747173 99.34885296 -0.98594991 99.00379778 5.1875 98.3125 C6.1775 98.20164062 7.1675 98.09078125 8.1875 97.9765625 C18.00021709 96.62220311 29.27239142 93.72410811 35.5859375 85.48828125 C38.3549253 80.20505253 38.74701719 76.08930312 37.1875 70.3125 C35.92768903 67.31337891 35.92768903 67.31337891 34.1875 65.3125 C33.5275 65.3125 32.8675 65.3125 32.1875 65.3125 Z M-28.8125 74.3125 C-28.4825 74.9725 -28.1525 75.6325 -27.8125 76.3125 C-27.1525 75.9825 -26.4925 75.6525 -25.8125 75.3125 C-26.8025 74.9825 -27.7925 74.6525 -28.8125 74.3125 Z M-24.8125 75.3125 C-24.8125 76.3025 -24.8125 77.2925 -24.8125 78.3125 C-24.1525 77.9825 -23.4925 77.6525 -22.8125 77.3125 C-23.4725 76.6525 -24.1325 75.9925 -24.8125 75.3125 Z M28.1875 112.3125 C28.538125 113.240625 28.88875 114.16875 29.25 115.125 C30.74075804 120.19149235 29.87706871 125.15937163 29.1875 130.3125 C22.26620688 133.17648336 16.69878978 133.51570469 9.2265625 133.125 C6.22150513 133.04672518 6.22150513 133.04672518 4.296875 134.625 C2.57143358 137.24961511 2.80567926 139.25793406 3.1875 142.3125 C4.56256099 144.19140434 4.56256099 144.19140434 6.1875 145.3125 C6.1875 144.6525 6.1875 143.9925 6.1875 143.3125 C6.8475 143.3125 7.5075 143.3125 8.1875 143.3125 C8.5175 144.3025 8.8475 145.2925 9.1875 146.3125 C17.25997739 144.93189521 24.35939813 143.07148009 31.1875 138.3125 C31.1875 137.6525 31.1875 136.9925 31.1875 136.3125 C31.785625 136.10625 32.38375 135.9 33 135.6875 C36.1494967 133.70781636 36.90271386 131.78142258 38.1875 128.3125 C39.16544807 121.68418533 37.48863912 118.42427382 33.6953125 113 C33.19773437 112.443125 32.70015625 111.88625 32.1875 111.3125 C30.1129644 111.1634288 30.1129644 111.1634288 28.1875 112.3125 Z M-25.8125 123.3125 C-26.1425 123.9725 -26.4725 124.6325 -26.8125 125.3125 C-24.3375 125.8075 -24.3375 125.8075 -21.8125 126.3125 C-22.79100195 125.29145449 -23.79230427 124.2918879 -24.8125 123.3125 C-25.1425 123.3125 -25.4725 123.3125 -25.8125 123.3125 Z " fill="#E42739" transform="translate(249.8125,201.6875)"/>
<path d="M0 0 C-0.58870835 3.23120605 -1.34125865 6.40215541 -2.15625 9.58203125 C-2.48302734 10.85723633 -2.48302734 10.85723633 -2.81640625 12.15820312 C-3.26930566 13.91674684 -3.72500045 15.67457317 -4.18359375 17.43164062 C-9.32674241 37.59339202 -7.31998244 57.84924377 -0.125 77.25 C1 81 1 81 0.3203125 83.0703125 C-1.22149873 85.32372892 -2.637532 86.27874066 -5 87.625 C-7.3576762 88.98586457 -9.06091111 90.06091111 -11 92 C-12.31418613 92.90350296 -13.64984376 93.77618854 -15 94.625 C-15.70125 95.07101562 -16.4025 95.51703125 -17.125 95.9765625 C-19 97 -19 97 -21 97 C-21.495 98.485 -21.495 98.485 -22 100 C-23.485 100.495 -23.485 100.495 -25 101 C-25.433125 101.433125 -25.86625 101.86625 -26.3125 102.3125 C-28.63260518 104.63260518 -31.21464096 106.28137421 -34 108 C-34.66 108 -35.32 108 -36 108 C-36 108.66 -36 109.32 -36 110 C-38.30078125 111.69140625 -38.30078125 111.69140625 -41.3125 113.5625 C-42.79169922 114.49255859 -42.79169922 114.49255859 -44.30078125 115.44140625 C-47 117 -47 117 -50 118 C-50 118.66 -50 119.32 -50 120 C-52.31 120.99 -54.62 121.98 -57 123 C-57 123.66 -57 124.32 -57 125 C-57.804375 125.12375 -58.60875 125.2475 -59.4375 125.375 C-60.7059375 125.684375 -60.7059375 125.684375 -62 126 C-62.33 126.66 -62.66 127.32 -63 128 C-63.99 128 -64.98 128 -66 128 C-66 128.66 -66 129.32 -66 130 C-66.639375 130.598125 -67.27875 131.19625 -67.9375 131.8125 C-70.25174456 134.26700181 -70.63391473 135.70523261 -71 139 C-70.01 139.33 -69.02 139.66 -68 140 C-68 140.66 -68 141.32 -68 142 C-66.948125 141.525625 -65.89625 141.05125 -64.8125 140.5625 C-62.50700576 139.5617378 -60.61637607 138.92494314 -58.125 138.4375 C-57.073125 138.2209375 -57.073125 138.2209375 -56 138 C-55.67 137.34 -55.34 136.68 -55 136 C-50.44062236 132.50701617 -46.64289221 130.92128852 -41 130 C-38.79820129 128.88806959 -36.69492401 127.6445748 -34.56640625 126.3984375 C-30.8037421 124.3481578 -26.87052875 122.7970784 -22.89453125 121.2109375 C-19.85056783 119.93748452 -16.95060872 118.47707119 -14 117 C-9.79732136 115.0698404 -5.5680278 113.19869474 -1.34375 111.31640625 C2.30948464 109.68235401 5.92291766 108.0393612 9.48828125 106.21875 C12 105 12 105 14.1875 105 C16.78484992 106.43302065 17.54441 108.4381616 19 111 C20.62449243 112.70779973 22.29220027 114.37550757 24 116 C24.99 117.051875 24.99 117.051875 26 118.125 C27.91838227 120.05571509 27.91838227 120.05571509 30.1875 121.3125 C32.61602481 122.76961488 34.47913809 124.24382891 36.625 126.0625 C41.28076865 129.73068136 46.28832098 132.5270518 51.5 135.3125 C52.69230225 135.96134155 52.69230225 135.96134155 53.90869141 136.62329102 C58.53436994 139.04084825 62.8112936 140.65580827 67.95629883 141.57470703 C70.14677618 142.03054403 72.11139762 142.73496269 74.1875 143.5625 C77.43036638 144.84924858 80.52335269 145.56541909 84 146 C83.47800894 151.91589869 80.06399573 155.23497748 75.76171875 158.9140625 C73.19993477 160.97783249 70.60974114 162.99726532 68 165 C66.35334613 166.26976996 64.70746207 167.54053911 63.0625 168.8125 C61.99708984 169.62654297 61.99708984 169.62654297 60.91015625 170.45703125 C59.02391216 171.89896476 59.02391216 171.89896476 57.703125 173.43359375 C55.02800123 175.89397135 51.85289845 177.50664525 48.6875 179.25 C47.61290527 179.84325073 47.61290527 179.84325073 46.51660156 180.44848633 C45.04539825 181.25582623 43.57224726 182.05962707 42.09716797 182.85986328 C40.23613815 183.87162222 38.38489086 184.90132923 36.53515625 185.93359375 C7.741279 201.30630586 -26.65876566 204.20535385 -57.8125 195.125 C-75.60623431 189.2449497 -92.44147072 180.83601509 -107 169 C-107.74121094 168.51402344 -108.48242188 168.02804687 -109.24609375 167.52734375 C-112.17213223 165.50796508 -113.78239816 164.11333736 -114.48242188 160.53173828 C-114.5684668 159.09677002 -114.5684668 159.09677002 -114.65625 157.6328125 C-114.72158936 156.561521 -114.78692871 155.49022949 -114.85424805 154.38647461 C-115.6563808 135.74931644 -114.92801506 118.2595845 -111 100 C-110.83604736 99.15824219 -110.67209473 98.31648438 -110.50317383 97.44921875 C-106.32548525 77.11415235 -95.95086143 59.11717139 -82 44 C-80.93172238 42.69219825 -79.86809137 41.38056273 -78.8125 40.0625 C-76.22487778 37.04484314 -73.27526142 34.81945316 -70.046875 32.51953125 C-68.02233428 31.01658022 -66.22075721 29.40310766 -64.375 27.6875 C-47.99522976 13.2197652 -22.20991858 -0.4354886 0 0 Z " fill="#27764A" transform="translate(150,254)"/>
<path d="M0 0 C12.02228747 2.89620978 23.63910675 6.91839502 34.5078125 12.8671875 C36.52807919 13.95905969 36.52807919 13.95905969 39.42578125 13.75 C40.78151873 15.06054623 42.11190956 16.39748503 43.42578125 17.75 C46.32806974 19.63648752 49.30844117 21.24905848 52.42578125 22.75 C52.42578125 23.41 52.42578125 24.07 52.42578125 24.75 C53.15152344 24.99363281 53.87726563 25.23726563 54.625 25.48828125 C57.77018008 26.90514759 59.72782406 28.58115811 62.23828125 30.9375 C63.54152344 32.14599609 63.54152344 32.14599609 64.87109375 33.37890625 C65.71414063 34.16136719 66.5571875 34.94382812 67.42578125 35.75 C68.8167244 36.96395934 70.21212619 38.17284167 71.61328125 39.375 C72.88727506 40.4964197 74.15827523 41.62125253 75.42578125 42.75 C75.98652344 43.24371094 76.54726563 43.73742187 77.125 44.24609375 C98.55734163 64.27958791 109.37947544 95.21238779 110.55761719 123.96777344 C111.34629128 157.86128596 111.34629128 157.86128596 106.42578125 164.75 C101.7918758 169.24628044 96.59761456 172.76019124 91.11328125 176.125 C90.04110352 176.79982422 90.04110352 176.79982422 88.94726562 177.48828125 C83.68786807 180.75 83.68786807 180.75 81.42578125 180.75 C81.42578125 181.41 81.42578125 182.07 81.42578125 182.75 C80.47703125 182.976875 79.52828125 183.20375 78.55078125 183.4375 C75.49955136 184.30151163 72.90159179 185.49711512 70.11328125 187 C40.56291838 202.15633179 5.68456484 202.98087918 -25.55371094 193.12548828 C-38.79709429 188.76215572 -54.21188989 182.51417924 -64.69921875 173.125 C-68.67754866 169.62651251 -72.79683795 166.31462841 -76.92578125 162.99609375 C-79.62587438 160.70619176 -82.09955846 158.27984139 -84.57421875 155.75 C-85.17234375 155.193125 -85.77046875 154.63625 -86.38671875 154.0625 C-87.57421875 152.75 -87.57421875 152.75 -87.57421875 150.75 C-88.23421875 150.75 -88.89421875 150.75 -89.57421875 150.75 C-89.57421875 149.43 -89.57421875 148.11 -89.57421875 146.75 C-88.341875 146.44707031 -87.10953125 146.14414062 -85.83984375 145.83203125 C-72.35010021 142.44764968 -60.33096953 138.35502691 -48.57421875 130.75 C-47.43339844 130.02296875 -47.43339844 130.02296875 -46.26953125 129.28125 C-32.61875856 121.02845434 -32.61875856 121.02845434 -23.57421875 108.75 C-22.91421875 108.75 -22.25421875 108.75 -21.57421875 108.75 C-21.07921875 107.265 -21.07921875 107.265 -20.57421875 105.75 C-16.22604975 106.40881348 -12.57783759 107.96267016 -8.57421875 109.75 C-7.81109375 110.03875 -7.04796875 110.3275 -6.26171875 110.625 C-1.89493864 112.45295447 2.14670218 114.87472309 6.26953125 117.19140625 C9.22793741 118.82324436 9.22793741 118.82324436 11.90625 119.23828125 C15.37958732 119.94371875 18.18699455 121.64853997 21.23828125 123.375 C30.65211043 128.55625482 40.43382808 132.80681542 50.42578125 136.75 C50.42578125 137.41 50.42578125 138.07 50.42578125 138.75 C50.998125 138.88277344 51.57046875 139.01554688 52.16015625 139.15234375 C54.40229 139.74380317 56.51157744 140.48288854 58.67578125 141.3125 C59.3821875 141.58191406 60.08859375 141.85132813 60.81640625 142.12890625 C61.61304688 142.43634766 61.61304688 142.43634766 62.42578125 142.75 C62.42578125 142.09 62.42578125 141.43 62.42578125 140.75 C63.08578125 140.42 63.74578125 140.09 64.42578125 139.75 C65.09928894 137.04987653 65.09928894 137.04987653 64.42578125 133.75 C62.05091751 131.03354627 59.41037327 128.77568695 56.42578125 126.75 C55.76578125 126.75 55.10578125 126.75 54.42578125 126.75 C53.62140625 125.88375 53.62140625 125.88375 52.80078125 125 C50.65842224 122.97039673 49.38548456 122.16373033 46.78515625 120.984375 C42.19527061 118.75033223 38.31733735 115.87656776 34.30078125 112.75 C25.47042972 105.72059987 25.47042972 105.72059987 15.42578125 100.75 C15.42578125 99.76 15.42578125 98.77 15.42578125 97.75 C14.74515625 97.523125 14.06453125 97.29625 13.36328125 97.0625 C10.19306782 95.64602166 7.71859465 93.87708079 4.9765625 91.7734375 C3.45724654 90.56639569 3.45724654 90.56639569 1.42578125 90.75 C0.62140625 89.925 -0.18296875 89.1 -1.01171875 88.25 C-3.33544291 85.40083807 -3.33544291 85.40083807 -6.57421875 85.75 C-6.20860264 78.92516592 -4.53902837 72.95222559 -2.38989258 66.51171875 C-0.41142893 60.53457571 0.56497058 55.16352529 0.48828125 48.875 C0.47925781 47.90820312 0.47023438 46.94140625 0.4609375 45.9453125 C0.44933594 45.22085938 0.43773437 44.49640625 0.42578125 43.75 C1.08578125 43.75 1.74578125 43.75 2.42578125 43.75 C0.86703161 29.3601979 -1.4740284 15.63878708 -5.57421875 1.75 C-2.57421875 -0.25 -2.57421875 -0.25 0 0 Z " fill="#28764A" transform="translate(355.57421875,253.25)"/>
<path d="M0 0 C2.31328571 1.40664325 4.59955849 2.84620482 6.87451172 4.31396484 C7.57664795 4.76497559 8.27878418 5.21598633 9.00219727 5.68066406 C13.00296298 8.32907877 16.24150802 11.20147351 19.62451172 14.62646484 C20.61451172 14.95646484 21.60451172 15.28646484 22.62451172 15.62646484 C24.32180264 17.26193391 25.98474131 18.93332913 27.62451172 20.62646484 C29.36850689 22.17492116 31.11870365 23.71641627 32.87451172 25.25146484 C46.53205786 37.70393338 57.57202696 54.09596117 63.62451172 71.62646484 C63.97900391 72.63580078 64.33349609 73.64513672 64.69873047 74.68505859 C67.14724372 82.12162114 68.6836047 89.59375624 70.01123047 97.29052734 C70.54104153 100.60852698 70.54104153 100.60852698 71.62451172 103.62646484 C71.86466022 107.78850073 71.81483916 111.95824367 71.81201172 116.12646484 C71.81120605 117.33866699 71.81040039 118.55086914 71.80957031 119.79980469 C71.60005558 150.87782273 71.60005558 150.87782273 65.49951172 163.68896484 C65.14630859 164.44306641 64.79310547 165.19716797 64.42919922 165.97412109 C64.16365234 166.51939453 63.89810547 167.06466797 63.62451172 167.62646484 C59.62451172 167.62646484 59.62451172 167.62646484 57.98388672 166.12255859 C57.45279297 165.44322266 56.92169922 164.76388672 56.37451172 164.06396484 C51.80454477 158.54273868 46.75167028 152.63097819 39.62451172 150.62646484 C39.62451172 149.96646484 39.62451172 149.30646484 39.62451172 148.62646484 C38.84076172 148.42021484 38.05701172 148.21396484 37.24951172 148.00146484 C24.98621385 143.3498691 24.98621385 143.3498691 22.62451172 138.62646484 C20.4555556 137.85083686 20.4555556 137.85083686 17.81201172 137.25146484 C11.64130287 135.67234644 5.64568582 133.69657182 -0.37548828 131.62646484 C-0.70548828 132.28646484 -1.03548828 132.94646484 -1.37548828 133.62646484 C-1.37548828 132.96646484 -1.37548828 132.30646484 -1.37548828 131.62646484 C-4.34548828 130.96646484 -7.31548828 130.30646484 -10.37548828 129.62646484 C-10.4609642 128.62723495 -10.54644012 127.62800507 -10.63450623 126.59849548 C-11.44151573 117.16744711 -12.25061229 107.73657979 -13.06173611 98.30588436 C-13.47864427 93.45783663 -13.89482488 88.60972876 -14.30932617 83.76147461 C-14.70960023 79.07994937 -15.1118071 74.39859379 -15.51533699 69.7173481 C-15.66871607 67.93410677 -15.8214065 66.15080608 -15.97338676 64.36744499 C-16.18687941 61.86369767 -16.40285156 59.3601754 -16.61938477 56.85668945 C-16.71217461 55.75832512 -16.71217461 55.75832512 -16.80683899 54.63777161 C-16.98169512 52.63266704 -17.17809379 50.62947618 -17.37548828 48.62646484 C-17.49420792 47.34296646 -17.61292755 46.05946808 -17.73524475 44.73707581 C-18.05622804 41.33148219 -18.05622804 41.33148219 -21.37548828 39.62646484 C-23.48698473 39.55003775 -23.48698473 39.55003775 -25.37548828 40.62646484 C-27.19044758 44.29350713 -27.72567745 47.58901294 -28.02978516 51.64404297 C-28.12328247 52.83719116 -28.21677979 54.03033936 -28.31311035 55.25964355 C-28.40588257 56.54600708 -28.49865479 57.83237061 -28.59423828 59.15771484 C-28.69793623 60.51279388 -28.80240225 61.86781433 -28.90759277 63.22277832 C-29.18334384 66.79806463 -29.44984958 70.37397814 -29.71405029 73.95013428 C-30.1333088 79.60211936 -30.56693528 85.25303414 -30.99899292 90.90405273 C-31.10394317 92.27870005 -31.20853855 93.65337452 -31.31277466 95.02807617 C-32.18887775 106.57584399 -33.20829568 118.10451332 -34.37548828 129.62646484 C-36.29215499 130.12108851 -38.20883484 130.6156614 -40.12561035 131.10986328 C-41.59980603 131.49067242 -43.07329558 131.87421762 -44.54638672 132.25927734 C-47.96442143 133.12713099 -50.82737518 133.62646484 -54.37548828 133.62646484 C-54.37548828 134.28646484 -54.37548828 134.94646484 -54.37548828 135.62646484 C-55.15794922 135.74763672 -55.94041016 135.86880859 -56.74658203 135.99365234 C-57.75849609 136.16123047 -58.77041016 136.32880859 -59.81298828 136.50146484 C-60.82232422 136.66388672 -61.83166016 136.82630859 -62.87158203 136.99365234 C-63.69787109 137.20248047 -64.52416016 137.41130859 -65.37548828 137.62646484 C-65.70548828 138.28646484 -66.03548828 138.94646484 -66.37548828 139.62646484 C-68.36123227 140.65448275 -70.36436383 141.64903023 -72.37548828 142.62646484 C-74.59702556 143.95885953 -76.8052246 145.31371183 -79.00048828 146.68896484 C-84.98815331 150.43648946 -84.98815331 150.43648946 -87.62939453 151.73193359 C-90.38316018 153.14269944 -92.22253812 155.42344608 -94.37548828 157.62646484 C-95.55495944 158.63592214 -96.74284143 159.6356166 -97.93798828 160.62646484 C-100.19440482 162.51578541 -101.78371572 164.1480888 -103.62548828 166.50146484 C-104.20298828 167.20271484 -104.78048828 167.90396484 -105.37548828 168.62646484 C-106.36548828 168.62646484 -107.35548828 168.62646484 -108.37548828 168.62646484 C-111.5746281 159.6884101 -114.23927046 151.0993506 -115.37548828 141.62646484 C-115.48634766 140.79501953 -115.59720703 139.96357422 -115.71142578 139.10693359 C-118.3640335 115.77115484 -116.94294468 89.28438834 -107.37548828 67.62646484 C-106.70722913 65.66867436 -106.0405696 63.71033716 -105.37548828 61.75146484 C-100.14778957 48.15005712 -91.09265213 35.47466946 -80.37548828 25.62646484 C-79.38548828 25.29646484 -78.39548828 24.96646484 -77.37548828 24.62646484 C-76.64225032 22.61138126 -76.64225032 22.61138126 -76.37548828 20.62646484 C-75.38548828 20.62646484 -74.39548828 20.62646484 -73.37548828 20.62646484 C-73.37548828 19.96646484 -73.37548828 19.30646484 -73.37548828 18.62646484 C-71.80126953 17.25927734 -71.80126953 17.25927734 -69.68798828 15.75146484 C-67.42304947 14.12207384 -65.20628316 12.48843654 -63.04345703 10.72412109 C-53.88218881 3.52119132 -43.78506765 -1.92976534 -33.12548828 -6.56103516 C-32.22056641 -6.95959717 -31.31564453 -7.35815918 -30.38330078 -7.76879883 C-29.52994141 -8.1269165 -28.67658203 -8.48503418 -27.79736328 -8.85400391 C-27.04036133 -9.17264404 -26.28335938 -9.49128418 -25.50341797 -9.81958008 C-18.033214 -11.76426718 -6.35646596 -3.6753831 0 0 Z " fill="#28764A" transform="translate(272.37548828125,57.37353515625)"/>
<path d="M0 0 C0.7425 0.185625 1.485 0.37125 2.25 0.5625 C4.94990963 0.99203108 6.44631077 0.85122974 9 0 C9 0.99 9 1.98 9 3 C9.94875 3.12375 10.8975 3.2475 11.875 3.375 C15.77453427 4.15490685 16.55172944 5.4858073 19.125 8.4375 C22.02087022 12.82452727 21.63206209 17.95085281 21 23 C19.9765625 25.83984375 19.9765625 25.83984375 19 28 C18.34 28 17.68 28 17 28 C16.95875 28.556875 16.9175 29.11375 16.875 29.6875 C15.55060077 33.18769796 13.16796012 35.18097774 10 37 C5.86167964 38.1676259 2.12978658 38.19304946 -2 37 C-1.19175781 36.69707031 -0.38351562 36.39414062 0.44921875 36.08203125 C7.75853529 33.21649702 12.38355993 30.83744543 16.875 24.25 C18.35704103 19.96854814 18.10719042 16.37048852 17 12 C16.34 11.01 15.68 10.02 15 9 C13.03540082 11.94689877 12.76901383 12.69577868 12.5625 16 C12.18952156 19.7574124 12.18952156 19.7574124 10.4375 22 C9.963125 22.33 9.48875 22.66 9 23 C8.67 22.34 8.34 21.68 8 21 C8.66 21 9.32 21 10 21 C9.91231752 19.4156683 9.80412671 17.83246433 9.6875 16.25 C9.60048828 14.92742187 9.60048828 14.92742187 9.51171875 13.578125 C8.93177052 10.65624843 7.81156672 9.31181168 6 7 C6 6.01 6 5.02 6 4 C3.03 3.505 3.03 3.505 0 3 C0 2.01 0 1.02 0 0 Z M7 3 C7.66 3.66 8.32 4.32 9 5 C9 4.34 9 3.68 9 3 C8.34 3 7.68 3 7 3 Z " fill="#DE3639" transform="translate(269,260)"/>
<path d="M0 0 C7.85997069 7.85997069 7.52830768 25.00187918 7.5625 35.25 C7.48788641 45.36081945 6.61436421 54.51229395 3 64 C2.67 64 2.34 64 2 64 C1.78434771 58.58473137 1.99144738 53.52146489 3 48.1875 C4.87171845 37.78021443 6.51431329 19.53039807 1 10 C-1.16666667 3.5 -1.16666667 3.5 0 0 Z " fill="#D92B33" transform="translate(335,259)"/>
<path d="M0 0 C2.43780899 0.64468503 4.87525201 1.29070049 7.3125 1.9375 C8.34793945 2.21110352 8.34793945 2.21110352 9.40429688 2.49023438 C12.29887844 3.2593261 15.15784729 4.05261576 18 5 C19.34264044 5.09187856 20.68937751 5.13066734 22.03515625 5.1328125 C22.83646973 5.13458496 23.6377832 5.13635742 24.46337891 5.13818359 C25.32108887 5.13383301 26.17879883 5.12948242 27.0625 5.125 C28.38386963 5.1242749 28.38386963 5.1242749 29.73193359 5.12353516 C36.65467218 5.08766604 43.5393466 4.76129277 50.43774414 4.18017578 C52.28781171 4.04420058 54.14498556 4.01267664 56 4 C56.66 4.66 57.32 5.32 58 6 C37.68982305 10.29196192 17.90354257 8.0751827 -2 3 C-1.34 2.67 -0.68 2.34 0 2 C0 1.34 0 0.68 0 0 Z " fill="#6B997F" transform="translate(93,446)"/>
<path d="M0 0 C1.66666667 0.66666667 3.33333333 1.33333333 5 2 C6.2684375 2.4640625 6.2684375 2.4640625 7.5625 2.9375 C10.06287511 4.0274071 11.96288216 5.18922859 14 7 C14 9 14 9 12.5 10.625 C12.005 11.07875 11.51 11.5325 11 12 C12.32 12 13.64 12 15 12 C14 15 14 15 12.265625 16.0859375 C9.78935753 17.08498334 7.3148628 17.88253972 4.75 18.625 C3.41195312 19.01558594 3.41195312 19.01558594 2.046875 19.4140625 C1.37140625 19.60742188 0.6959375 19.80078125 0 20 C-0.33 18.68 -0.66 17.36 -1 16 C2.44069624 13.70620251 3.72290301 13 8 13 C7.67 12.01 7.34 11.02 7 10 C7.33 9.01 7.66 8.02 8 7 C7.01 7 6.02 7 5 7 C5 6.34 5 5.68 5 5 C3.68 4.67 2.36 4.34 1 4 C0.67 2.68 0.34 1.36 0 0 Z " fill="#DC333B" transform="translate(223,278)"/>
<path d="M0 0 C2.31 0.33 4.62 0.66 7 1 C7 1.99 7 2.98 7 4 C8.32 4.33 9.64 4.66 11 5 C11 5.66 11 6.32 11 7 C9.68 7.33 8.36 7.66 7 8 C7.515625 8.99 8.03125 9.98 8.5625 11 C10.82103272 16.21689249 9.77238616 20.68284151 8 26 C7.01 26.33 6.02 26.66 5 27 C5 25.34240649 5.00561967 23.68467408 5.03515625 22.02734375 C5.2048203 17.88317649 5.2048203 17.88317649 4 14 C3.87625 12.906875 3.7525 11.81375 3.625 10.6875 C3.00334328 7.01972537 2.0100749 5.05880963 0 2 C0 1.34 0 0.68 0 0 Z " fill="#E45155" transform="translate(271,306)"/>
<path d="M0 0 C4.92795378 9.44754129 4.18023156 20.98258071 4.1875 31.375 C4.18830566 32.49213379 4.18911133 33.60926758 4.18994141 34.76025391 C4.15078932 40.57477357 4.07262997 46.27475213 3 52 C2.01 52.495 2.01 52.495 1 53 C0.80508548 51.54263913 0.61930642 50.08405407 0.4375 48.625 C0.33308594 47.81289063 0.22867187 47.00078125 0.12109375 46.1640625 C0 44 0 44 1 42 C1.73250816 28.06080065 0.57064246 13.92762194 0 0 Z " fill="#32714E" transform="translate(462,356)"/>
<path d="M0 0 C-5.01986699 3.01667085 -8.71323804 3.38714622 -14.375 3.1875 C-15.11105469 3.17396484 -15.84710938 3.16042969 -16.60546875 3.14648438 C-18.40396743 3.11144869 -20.20208422 3.05765288 -22 3 C-22.020625 4.27875 -22.04125 5.5575 -22.0625 6.875 C-22.07410156 7.59429687 -22.08570313 8.31359375 -22.09765625 9.0546875 C-22.12649242 11.08185404 -22.12649242 11.08185404 -21 13 C-20.01 12.67 -19.02 12.34 -18 12 C-18.33 13.65 -18.66 15.3 -19 17 C-22.17344304 16.08137175 -23.64826723 15.61971964 -25.3125 12.6875 C-26.3135003 8.77449884 -26.42708923 6.2421023 -25.10546875 2.3984375 C-22.64303828 -0.40663172 -22.01667262 -0.41224514 -18.4375 -0.7421875 C-16.6257755 -0.81125618 -14.8129255 -0.85457267 -13 -0.875 C-12.08476562 -0.90851563 -11.16953125 -0.94203125 -10.2265625 -0.9765625 C-3.5197313 -1.17324377 -3.5197313 -1.17324377 0 0 Z " fill="#DB3339" transform="translate(276,333)"/>
<path d="M0 0 C0.78117188 0.19916016 0.78117188 0.19916016 1.578125 0.40234375 C4.62815201 1.1550117 7.68842047 1.85833671 10.75 2.5625 C12.50570312 2.96662109 12.50570312 2.96662109 14.296875 3.37890625 C15.18890625 3.58386719 16.0809375 3.78882813 17 4 C16.22784273 8.95187812 14.48993995 11.35142642 11 15 C8.1875 16.875 8.1875 16.875 6 18 C6.51194545 15.95221819 7.01956899 13.94129302 7.6875 11.9375 C8.27712366 9.67889722 8.27712366 9.67889722 6 7 C6.66 6.67 7.32 6.34 8 6 C5.36 4.68 2.72 3.36 0 2 C0 1.34 0 0.68 0 0 Z " fill="#356F51" transform="translate(217,396)"/>
<path d="M0 0 C0.33 0 0.66 0 1 0 C1.6842635 7.00148184 2.0985611 13.881612 1.9375 20.91796875 C1.76159204 22.99011587 1.76159204 22.99011587 3 24 C3.35020669 25.70100391 3.65502053 27.41144686 3.9375 29.125 C4.70409401 33.54149684 5.71358954 37.71196513 7 42 C7.34820041 43.66362417 7.68404492 45.32995171 8 47 C8.32483418 48.33542939 8.6550855 49.66961551 9 51 C8.34 51 7.68 51 7 51 C6.19759151 49.04604346 5.40870691 47.08653232 4.625 45.125 C4.18414062 44.03445313 3.74328125 42.94390625 3.2890625 41.8203125 C-0.07399724 32.41726759 -0.25771002 23.28741736 -0.125 13.375 C-0.11597656 12.08464844 -0.10695312 10.79429687 -0.09765625 9.46484375 C-0.0742848 6.30969751 -0.04152091 3.15495074 0 0 Z " fill="#DC4748" transform="translate(158,280)"/>
<path d="M0 0 C0.7425 0.185625 1.485 0.37125 2.25 0.5625 C4.94990963 0.99203108 6.44631077 0.85122974 9 0 C8.67 1.32 8.34 2.64 8 4 C8.969375 4.2475 9.93875 4.495 10.9375 4.75 C14 6 14 6 15 8 C15 8.66 15 9.32 15 10 C14.34 10.66 13.68 11.32 13 12 C12.77456255 14.02893704 12.55067543 16.0581544 12.3515625 18.08984375 C11.90647166 20.50817063 11.00603542 21.6044971 9 23 C8.67 22.34 8.34 21.68 8 21 C8.66 21 9.32 21 10 21 C9.91231752 19.4156683 9.80412671 17.83246433 9.6875 16.25 C9.60048828 14.92742187 9.60048828 14.92742187 9.51171875 13.578125 C8.93177052 10.65624843 7.81156672 9.31181168 6 7 C6 6.01 6 5.02 6 4 C3.03 3.505 3.03 3.505 0 3 C0 2.01 0 1.02 0 0 Z " fill="#EA7171" transform="translate(269,260)"/>
<path d="M0 0 C0.33 0 0.66 0 1 0 C1.33 2.64 1.66 5.28 2 8 C2.33 8 2.66 8 3 8 C3.33 15.59 3.66 23.18 4 31 C4.33 31 4.66 31 5 31 C5.09688221 36.44693314 5.12862175 41.63904667 4 47 C3.67 47 3.34 47 3 47 C2.56416574 42.55742701 2.13739771 38.11409392 1.71826172 33.66992188 C1.57511621 32.16481252 1.42968729 30.65991821 1.28173828 29.15527344 C0.32379804 19.39340623 -0.21120656 9.81914932 0 0 Z " fill="#86AA97" transform="translate(257,117)"/>
<path d="M0 0 C1.76171875 0.8046875 1.76171875 0.8046875 3.01171875 3.3671875 C3.25921875 4.1715625 3.50671875 4.9759375 3.76171875 5.8046875 C0.79171875 6.4646875 -2.17828125 7.1246875 -5.23828125 7.8046875 C-5.23828125 7.1446875 -5.23828125 6.4846875 -5.23828125 5.8046875 C-5.96015625 6.1553125 -6.68203125 6.5059375 -7.42578125 6.8671875 C-10.55055175 7.90877767 -12.11990121 7.69565322 -15.23828125 6.8046875 C-12.63431552 5.06871034 -10.06803657 3.56947638 -7.30078125 2.1171875 C-6.44613281 1.65957031 -5.59148437 1.20195312 -4.7109375 0.73046875 C-2.23828125 -0.1953125 -2.23828125 -0.1953125 0 0 Z " fill="#377954" transform="translate(164.23828125,359.1953125)"/>
<path d="M0 0 C2.40309095 0.22562581 4.78687178 0.40040048 7.1953125 0.53515625 C7.90275604 0.57813339 8.61019958 0.62111053 9.33908081 0.66539001 C11.60083106 0.80184777 13.86288502 0.93224248 16.125 1.0625 C17.65757592 1.15389808 19.1901284 1.24569003 20.72265625 1.33789062 C24.48151406 1.56316668 28.24065539 1.7830054 32 2 C32 2.33 32 2.66 32 3 C18.30619245 5.28230126 5.41257206 3.99642567 -8 1 C-8 0.67 -8 0.34 -8 0 C-2.25 -1.125 -2.25 -1.125 0 0 Z " fill="#E15657" transform="translate(234,383)"/>
<path d="M0 0 C7.30248268 7.30248268 7.2903673 22.79763689 7.34716797 32.34619141 C7.29704427 37.90003896 7.19412302 43.44927615 7 49 C6.67 49 6.34 49 6 49 C6 40.09 6 31.18 6 22 C5.34 22 4.68 22 4 22 C3.87625 20.7625 3.7525 19.525 3.625 18.25 C3.22753019 15.05344701 2.55435847 12.83441839 1 10 C-1.16666667 3.5 -1.16666667 3.5 0 0 Z " fill="#DB5255" transform="translate(335,259)"/>
<path d="M0 0 C3.21852831 0.63065757 5.50801069 1.78020695 8.25 3.5625 C8.95640625 4.01753906 9.6628125 4.47257812 10.390625 4.94140625 C11.18726563 5.46541016 11.18726563 5.46541016 12 6 C9.50840482 8.49159518 8.50698662 8.77128348 5 9 C2.1799123 8.3136013 -0.4930314 7.47606562 -3 6 C-3.33 5.01 -3.66 4.02 -4 3 C-4.66 3 -5.32 3 -6 3 C-5.67 2.34 -5.34 1.68 -5 1 C-3.02 1.495 -3.02 1.495 -1 2 C-0.67 1.34 -0.34 0.68 0 0 Z " fill="#DB4047" transform="translate(226,324)"/>
<path d="M0 0 C1.15371094 0.00322266 2.30742187 0.00644531 3.49609375 0.00976562 C4.68589844 0.01814453 5.87570313 0.02652344 7.1015625 0.03515625 C8.92107422 0.04192383 8.92107422 0.04192383 10.77734375 0.04882812 C13.76046757 0.06057271 16.74348929 0.07699785 19.7265625 0.09765625 C19.7265625 0.42765625 19.7265625 0.75765625 19.7265625 1.09765625 C15.65232547 1.55153288 11.57725418 1.9968676 7.5012207 2.43432617 C6.11489738 2.58432606 4.72882378 2.7366529 3.34301758 2.89135742 C1.35044563 3.11338891 -0.64313075 3.32634715 -2.63671875 3.5390625 C-4.43556519 3.73544312 -4.43556519 3.73544312 -6.27075195 3.93579102 C-9.2734375 4.09765625 -9.2734375 4.09765625 -12.2734375 3.09765625 C-12.2734375 2.43765625 -12.2734375 1.77765625 -12.2734375 1.09765625 C-8.12420692 0.31185832 -4.22050319 -0.02089358 0 0 Z " fill="#DB4348" transform="translate(243.2734375,201.90234375)"/>
<path d="M0 0 C7.10147296 3.49666435 14.12426899 7.0759717 21 11 C21 11.33 21 11.66 21 12 C14.79011871 11.55643705 10.39459439 10.08467498 5 7 C5 6.34 5 5.68 5 5 C3.68 5 2.36 5 1 5 C0.67 3.35 0.34 1.7 0 0 Z " fill="#4C8463" transform="translate(188,382)"/>
<path d="M0 0 C13.86 0.495 13.86 0.495 28 1 C28 1.33 28 1.66 28 2 C20.58569409 3.83717315 13.62314474 4.23576736 6 4 C6 3.34 6 2.68 6 2 C3.03 1.505 3.03 1.505 0 1 C0 0.67 0 0.34 0 0 Z " fill="#187047" transform="translate(352,448)"/>
<path d="M0 0 C1.21236328 0.01353516 1.21236328 0.01353516 2.44921875 0.02734375 C3.37154297 0.04474609 3.37154297 0.04474609 4.3125 0.0625 C1.22440305 1.82712683 0.07937864 2.0625 -3.6875 2.0625 C-4.0175 2.7225 -4.3475 3.3825 -4.6875 4.0625 C-7.40196979 4.37491455 -10.02659361 4.57586592 -12.75 4.6875 C-13.50861328 4.72617187 -14.26722656 4.76484375 -15.04882812 4.8046875 C-16.92797195 4.89923562 -18.80770336 4.98196756 -20.6875 5.0625 C-21.0175 4.4025 -21.3475 3.7425 -21.6875 3.0625 C-19.02751305 1.73250653 -16.71380809 1.7636797 -13.75 1.5625 C-9.01816002 1.2405279 -4.72169198 -0.06843032 0 0 Z " fill="#E26D71" transform="translate(262.6875,297.9375)"/>
<path d="M0 0 C5.17401022 0.6748709 6.70581985 1.51549924 10.125 5.4375 C13.02087022 9.82452727 12.63206209 14.95085281 12 20 C10.9765625 22.83984375 10.9765625 22.83984375 10 25 C9.34 24.67 8.68 24.34 8 24 C8.33 23.67 8.66 23.34 9 23 C9.76210133 15.89121879 9.31729821 9.86214614 5 4 C2.43190172 1.5404226 2.43190172 1.5404226 0 0 Z " fill="#DC3136" transform="translate(278,263)"/>
<path d="M0 0 C0.33 1.32 0.66 2.64 1 4 C0.236875 4.28875 -0.52625 4.5775 -1.3125 4.875 C-4.15029308 5.96269013 -4.15029308 5.96269013 -7 8 C-9.32387947 8.39387788 -11.65793749 8.73486085 -14 9 C-14 9.66 -14 10.32 -14 11 C-16.64 11.33 -19.28 11.66 -22 12 C-18.50384608 8.97299909 -15.30577766 7.10159519 -11 5.4375 C-7.07903201 3.91212342 -3.55632507 2.25538998 0 0 Z " fill="#54926E" transform="translate(135,371)"/>
<path d="M0 0 C-2.9047189 7.03003776 -10.43042922 10.87163296 -17 14 C-18.81554159 15.56102491 -18.81554159 15.56102491 -20 17 C-20.66 16.67 -21.32 16.34 -22 16 C-5.08300395 0 -5.08300395 0 0 0 Z " fill="#E25E5F" transform="translate(204,214)"/>
<path d="M0 0 C0.33 0 0.66 0 1 0 C2.0176403 5.01608525 2.11856434 9.78608306 2.0625 14.875 C2.05798828 15.65875 2.05347656 16.4425 2.04882812 17.25 C2.03714093 19.16670014 2.01920908 21.08336048 2 23 C-0.04217935 21.31465306 -0.91813883 20.33972384 -1.546875 17.73046875 C-1.92826112 12.95580793 -2.12103966 8.70836656 -1 4 C-0.814375 3.21625 -0.62875 2.4325 -0.4375 1.625 C-0.293125 1.08875 -0.14875 0.5525 0 0 Z " fill="#3F7A57" transform="translate(342,164)"/>
<path d="M0 0 C0 3 0 3 -2 6 C-2.66 6 -3.32 6 -4 6 C-4.23460937 6.75667969 -4.46921875 7.51335937 -4.7109375 8.29296875 C-6.23509672 11.49370311 -7.63506942 12.47582836 -10.625 14.3125 C-11.44226563 14.82425781 -12.25953125 15.33601563 -13.1015625 15.86328125 C-13.72804687 16.23839844 -14.35453125 16.61351563 -15 17 C-15.66 16.67 -16.32 16.34 -17 16 C-15.54782324 14.49403892 -14.08807139 12.99537896 -12.625 11.5 C-11.81289062 10.6646875 -11.00078125 9.829375 -10.1640625 8.96875 C-8 7 -8 7 -6 7 C-5.67 5.68 -5.34 4.36 -5 3 C-4.01 3 -3.02 3 -2 3 C-2 2.34 -2 1.68 -2 1 C-1.34 0.67 -0.68 0.34 0 0 Z " fill="#377C5C" transform="translate(201,75)"/>
<path d="M0 0 C6.09781001 -0.22084624 11.21642935 -0.01167675 17 2 C17 2.66 17 3.32 17 4 C16.236875 3.979375 15.47375 3.95875 14.6875 3.9375 C11.89814214 3.87057159 11.89814214 3.87057159 9 5 C5.82838524 4.47139754 2.95843971 3.23268321 0 2 C0 1.34 0 0.68 0 0 Z " fill="#D93135" transform="translate(259,257)"/>
<path d="M0 0 C5.75 1.875 5.75 1.875 8 3 C8.33 3.99 8.66 4.98 9 6 C9.66 6.33 10.32 6.66 11 7 C11 7.66 11 8.32 11 9 C11.66 9 12.32 9 13 9 C13 8.34 13 7.68 13 7 C13.66 7.33 14.32 7.66 15 8 C14.67 8.66 14.34 9.32 14 10 C14.66 10 15.32 10 16 10 C15.67 11.32 15.34 12.64 15 14 C11.62691239 12.87563746 10.84876903 11.92657267 8.625 9.25 C5.87465784 6.00331159 3.05347784 2.96094821 0 0 Z " fill="#33845B" transform="translate(320,212)"/>
<path d="M0 0 C0.33 0 0.66 0 1 0 C2.2428547 5.54221131 1.91100229 10.75890563 1.5625 16.375 C1.51029297 17.30183594 1.45808594 18.22867187 1.40429688 19.18359375 C1.27544122 21.45613901 1.14051689 23.72815099 1 26 C0.34 26 -0.32 26 -1 26 C-1.02899599 22.22918278 -1.04679729 18.45839417 -1.0625 14.6875 C-1.07087891 13.61564453 -1.07925781 12.54378906 -1.08789062 11.43945312 C-1.09111328 10.41142578 -1.09433594 9.38339844 -1.09765625 8.32421875 C-1.10289307 7.37635498 -1.10812988 6.42849121 -1.11352539 5.4519043 C-1 3 -1 3 0 0 Z " fill="#377252" transform="translate(36,378)"/>
<path d="M0 0 C-1 3 -1 3 -2.78515625 3.9140625 C-7.88048094 5.50471275 -12.68061596 6.51641963 -18 7 C-14.98568679 4.57714777 -11.94482561 2.87243634 -8.4375 1.25 C-7.01244141 0.57710937 -7.01244141 0.57710937 -5.55859375 -0.109375 C-3 -1 -3 -1 0 0 Z " fill="#528C6C" transform="translate(249,49)"/>
<path d="M0 0 C2.3543816 0.62419898 4.70850682 1.24933923 7.0625 1.875 C7.71927734 2.04902344 8.37605469 2.22304688 9.05273438 2.40234375 C13.38292014 3.55421582 17.69500861 4.75720665 22 6 C22 6.33 22 6.66 22 7 C16.36375658 7.23952163 11.51426608 6.38279585 6.0625 5 C5.28326172 4.80921875 4.50402344 4.6184375 3.70117188 4.421875 C1.79900752 3.9550862 -0.10076009 3.47854864 -2 3 C-1.34 2.67 -0.68 2.34 0 2 C0 1.34 0 0.68 0 0 Z " fill="#548F72" transform="translate(93,446)"/>
<path d="M0 0 C3 1 3 1 4.16015625 2.72265625 C5.75439539 7.04563959 5.67648563 11.47893265 5 16 C2.7984026 18.89683868 1.21405538 20.39297231 -2 22 C-1.71125 21.443125 -1.4225 20.88625 -1.125 20.3125 C-0.75375 19.549375 -0.3825 18.78625 0 18 C0.37125 17.2575 0.7425 16.515 1.125 15.75 C2.86958539 10.26701733 2.58923513 5.17847026 0 0 Z " fill="#DE4243" transform="translate(285,317)"/>
<path d="M0 0 C-0.66 0 -1.32 0 -2 0 C-2 0.66 -2 1.32 -2 2 C-2.66 2.66 -3.32 3.32 -4 4 C-4 4.66 -4 5.32 -4 6 C-2.68 6.66 -1.36 7.32 0 8 C-0.99 8 -1.98 8 -3 8 C-2.34 9.32 -1.68 10.64 -1 12 C-2.875 11.6875 -2.875 11.6875 -5 11 C-7 8 -7 8 -7 4 C-7.66 3.67 -8.32 3.34 -9 3 C-9 2.34 -9 1.68 -9 1 C-3.375 -1.125 -3.375 -1.125 0 0 Z " fill="#DC2C33" transform="translate(274,298)"/>
<path d="M0 0 C-4.47162936 4.55359406 -8.27286637 4.6451287 -14.3125 4.75 C-15.56643555 4.79447266 -15.56643555 4.79447266 -16.84570312 4.83984375 C-18.89662485 4.91016107 -20.94831562 4.95738973 -23 5 C-19.64414347 2.76276232 -17.11888374 2.20398187 -13.1875 1.375 C-11.98480469 1.11460937 -10.78210938 0.85421875 -9.54296875 0.5859375 C-6.27837314 0.04603745 -3.2995537 -0.11116414 0 0 Z " fill="#E47676" transform="translate(277,284)"/>
<path d="M0 0 C0.578125 1.91796875 0.578125 1.91796875 1 4 C0.0246803 5.02408568 -0.98198643 6.01834406 -2 7 C-2.495 8.19625 -2.99 9.3925 -3.5 10.625 C-4.2425 12.295625 -4.2425 12.295625 -5 14 C-5.99 14.33 -6.98 14.66 -8 15 C-8 15.66 -8 16.32 -8 17 C-8.66 17 -9.32 17 -10 17 C-8.68018255 12.31812124 -6.80204328 8.99625079 -3.875 5.125 C-3.15054688 4.15820312 -2.42609375 3.19140625 -1.6796875 2.1953125 C-1.12539062 1.47085938 -0.57109375 0.74640625 0 0 Z " fill="#E26162" transform="translate(178,235)"/>
<path d="M0 0 C4.40521974 2.96505175 7.98339209 5.5354203 11 10 C11 10.66 11 11.32 11 12 C10.401875 11.835 9.80375 11.67 9.1875 11.5 C6.88655664 10.8885876 6.88655664 10.8885876 4 11 C3.67 11 3.34 11 3 11 C2.566875 9.3603125 2.566875 9.3603125 2.125 7.6875 C1.18106796 3.95986155 1.18106796 3.95986155 -1 1 C-0.67 0.67 -0.34 0.34 0 0 Z " fill="#DD4247" transform="translate(312,226)"/>
<path d="M0 0 C0.99 0 1.98 0 3 0 C5.46254726 6.61809577 5.18935472 13.00439516 5 20 C2.63988504 16.45982755 2.65480981 14.28664147 2.44140625 10.15625 C1.90769337 7.5490862 0.877903 6.8017718 -1 5 C-0.6875 2.3125 -0.6875 2.3125 0 0 Z " fill="#2B6B46" transform="translate(458,347)"/>
<path d="M0 0 C0.98613281 0.20882812 1.97226562 0.41765625 2.98828125 0.6328125 C3.98214844 0.83648437 4.97601563 1.04015625 6 1.25 C6.75925781 1.41757813 7.51851563 1.58515625 8.30078125 1.7578125 C8.63078125 2.7478125 8.96078125 3.7378125 9.30078125 4.7578125 C5.74835243 5.94195544 4.60247563 5.45316782 1.11328125 4.3203125 C0.21222656 4.03285156 -0.68882812 3.74539063 -1.6171875 3.44921875 C-2.30425781 3.22105469 -2.99132812 2.99289062 -3.69921875 2.7578125 C-3.36921875 5.0678125 -3.03921875 7.3778125 -2.69921875 9.7578125 C-4.64431875 6.8401625 -5.15198192 5.13243965 -5.69921875 1.7578125 C-2.69921875 -0.2421875 -2.69921875 -0.2421875 0 0 Z " fill="#488761" transform="translate(355.69921875,253.2421875)"/>
<path d="M0 0 C0.99 0 1.98 0 3 0 C3.66 2.64 4.32 5.28 5 8 C5.99 7.67 6.98 7.34 8 7 C7.67 8.65 7.34 10.3 7 12 C3.82655696 11.08137175 2.35173277 10.61971964 0.6875 7.6875 C-0.00035836 4.99859913 -0.15782426 2.76192463 0 0 Z " fill="#DD4A4E" transform="translate(250,338)"/>
<path d="M0 0 C3.24623365 2.92715941 5.00516159 5.62910463 6.75 9.625 C7.17796875 10.58664063 7.6059375 11.54828125 8.046875 12.5390625 C9 15 9 15 9 17 C8.34 17 7.68 17 7 17 C5.2734375 14.55078125 5.2734375 14.55078125 3.375 11.3125 C2.74335938 10.25675781 2.11171875 9.20101562 1.4609375 8.11328125 C0.01859843 5.03963355 -0.33361157 3.32993771 0 0 Z " fill="#4F876C" transform="translate(325,109)"/>
<path d="M0 0 C1.134375 0.020625 2.26875 0.04125 3.4375 0.0625 C0.85491077 2.64508923 -1.29125612 2.79237466 -4.78515625 3.5 C-5.66494141 3.7784375 -5.66494141 3.7784375 -6.5625 4.0625 C-6.8925 4.7225 -7.2225 5.3825 -7.5625 6.0625 C-9.87215848 7.11602843 -12.2054774 8.11969096 -14.5625 9.0625 C-14.2325 7.4125 -13.9025 5.7625 -13.5625 4.0625 C-12.92441406 3.85753906 -12.28632813 3.65257812 -11.62890625 3.44140625 C-10.80261719 3.17199219 -9.97632813 2.90257812 -9.125 2.625 C-8.30128906 2.35816406 -7.47757813 2.09132812 -6.62890625 1.81640625 C-1.73362299 0.03041444 -1.73362299 0.03041444 0 0 Z " fill="#5D9174" transform="translate(213.5625,190.9375)"/>
<path d="M0 0 C1.98 0 3.96 0 6 0 C5.01 0.495 5.01 0.495 4 1 C4.99 1 5.98 1 7 1 C7.66 1 8.32 1 9 1 C7.24277009 5.31320068 4.1937832 8.9031084 0 11 C0.51194545 8.95221819 1.01956899 6.94129302 1.6875 4.9375 C2.27712366 2.67889722 2.27712366 2.67889722 0 0 Z " fill="#39825C" transform="translate(223,403)"/>
<path d="M0 0 C0.66 0.66 1.32 1.32 2 2 C-1.27530896 6.63720719 -4.30435607 10.68542782 -9 14 C-8.51126356 9.60137205 -7.22179093 7.94563742 -4 5 C-2.64843325 3.34808509 -1.31037934 1.68477344 0 0 Z " fill="#E36466" transform="translate(323,347)"/>
<path d="M0 0 C1 2 1 2 0.3125 4.25 C-1.8028986 8.68226373 -4.33068866 12.6976198 -8 16 C-8.66 15.67 -9.32 15.34 -10 15 C-3.84965831 4.44191344 -3.84965831 4.44191344 0 0 Z " fill="#649679" transform="translate(62,305)"/>
<path d="M0 0 C0.33 0.99 0.66 1.98 1 3 C-1.64458379 4.32229189 -3.67761301 4.09677194 -6.625 4.0625 C-7.62789062 4.05347656 -8.63078125 4.04445313 -9.6640625 4.03515625 C-10.43492187 4.02355469 -11.20578125 4.01195312 -12 4 C-12 3.34 -12 2.68 -12 2 C-7.8794254 0.00214565 -4.54805635 -0.17835515 0 0 Z " fill="#DF5A5B" transform="translate(238,300)"/>
<path d="M0 0 C6.45166472 2.81448461 11.87725181 8.75450362 15 15 C10.27926078 13.50924025 10.27926078 13.50924025 8.9375 11.0625 C8.4734375 10.0415625 8.4734375 10.0415625 8 9 C6.67607028 7.98758315 5.34400833 6.98560611 4 6 C4 5.34 4 4.68 4 4 C2.68 3.34 1.36 2.68 0 2 C0 1.34 0 0.68 0 0 Z " fill="#3D7756" transform="translate(426,293)"/>
<path d="M0 0 C0.66 0 1.32 0 2 0 C1.63495936 5.66442374 0.9445679 10.00703705 -2 15 C-2.66 15 -3.32 15 -4 15 C-3.43179252 9.54520815 -2.05362055 5.08940744 0 0 Z " fill="#DD4244" transform="translate(165,256)"/>
<path d="M0 0 C0.66 0.33 1.32 0.66 2 1 C2 1.66 2 2.32 2 3 C4.31 3.66 6.62 4.32 9 5 C9 6.32 9 7.64 9 9 C5.60807637 8.40716379 3.7892243 7.23256811 1.25 4.9375 C0.63640625 4.38964844 0.0228125 3.84179688 -0.609375 3.27734375 C-1.06828125 2.85582031 -1.5271875 2.43429687 -2 2 C-1.34 1.34 -0.68 0.68 0 0 Z M9 4 C11 5 11 5 11 5 Z " fill="#E35458" transform="translate(187,359)"/>
<path d="M0 0 C1.98 0 3.96 0 6 0 C6 0.66 6 1.32 6 2 C6.99 1.67 7.98 1.34 9 1 C9 1.99 9 2.98 9 4 C9.66 4 10.32 4 11 4 C11.33 5.32 11.66 6.64 12 8 C9.03 7.505 9.03 7.505 6 7 C6 6.01 6 5.02 6 4 C5.195625 3.71125 4.39125 3.4225 3.5625 3.125 C1 2 1 2 0 0 Z " fill="#4B8563" transform="translate(365,347)"/>
<path d="M0 0 C1.32 0.66 2.64 1.32 4 2 C-2.93 5.465 -2.93 5.465 -10 9 C-10.33 8.01 -10.66 7.02 -11 6 C-9.02 5.67 -7.04 5.34 -5 5 C-5 4.34 -5 3.68 -5 3 C-4.01 3 -3.02 3 -2 3 C-2 2.34 -2 1.68 -2 1 C-1.34 0.67 -0.68 0.34 0 0 Z " fill="#478664" transform="translate(197,430)"/>
<path d="M0 0 C4.95 0 9.9 0 15 0 C15 0.66 15 1.32 15 2 C11.99686252 3.50156874 9.20932478 3.09281204 5.875 3.0625 C4.59367188 3.05347656 3.31234375 3.04445313 1.9921875 3.03515625 C0.51105469 3.01775391 0.51105469 3.01775391 -1 3 C-0.67 2.01 -0.34 1.02 0 0 Z " fill="#D83E3E" transform="translate(233,253)"/>
<path d="M0 0 C3.2286292 0.4983319 5.53418112 1.79721773 8.25 3.5625 C8.95640625 4.01753906 9.6628125 4.47257812 10.390625 4.94140625 C11.18726563 5.46541016 11.18726563 5.46541016 12 6 C9.8614515 8.1385485 8.86724686 8.42655063 6 9 C6 7.35 6 5.7 6 4 C4.824375 3.814375 4.824375 3.814375 3.625 3.625 C1 3 1 3 -1 1 C-0.67 0.67 -0.34 0.34 0 0 Z " fill="#DE5556" transform="translate(226,324)"/>
<path d="M0 0 C2.31 0 4.62 0 7 0 C6.21824485 4.84688192 4.60155722 9.3766367 3 14 C1.55189384 11.68719735 0.87434365 10.58355661 1.4609375 7.859375 C1.76257813 7.16328125 2.06421875 6.4671875 2.375 5.75 C2.67148438 5.04359375 2.96796875 4.3371875 3.2734375 3.609375 C3.51320312 3.07828125 3.75296875 2.5471875 4 2 C2.68 1.34 1.36 0.68 0 0 Z " fill="#5C8B70" transform="translate(143,254)"/>
<path d="M0 0 C0 0.33 0 0.66 0 1 C-2.24886238 1.50509208 -4.49913869 2.00389179 -6.75 2.5 C-8.62945312 2.91765625 -8.62945312 2.91765625 -10.546875 3.34375 C-14 4 -14 4 -18 4 C-18 3.34 -18 2.68 -18 2 C-11.52086573 -0.35001386 -6.79707213 -1.38458877 0 0 Z " fill="#5A8E72" transform="translate(236,187)"/>
<path d="M0 0 C0 0.33 0 0.66 0 1 C-10.395 1.495 -10.395 1.495 -21 2 C-21 1.67 -21 1.34 -21 1 C-18.62815918 0.43872469 -16.25471941 -0.0991444 -13.875 -0.625 C-13.20984375 -0.78484375 -12.5446875 -0.9446875 -11.859375 -1.109375 C-7.26423086 -2.10048452 -4.30498251 -1.8641513 0 0 Z " fill="#85AD96" transform="translate(386,451)"/>
<path d="M0 0 C0.66 0.33 1.32 0.66 2 1 C1.67 2.32 1.34 3.64 1 5 C-0.45736087 5.19491452 -1.91594593 5.38069358 -3.375 5.5625 C-4.18710938 5.66691406 -4.99921875 5.77132813 -5.8359375 5.87890625 C-8 6 -8 6 -10 5 C-8.38007835 4.13624104 -6.75388139 3.28424146 -5.125 2.4375 C-4.22007813 1.96183594 -3.31515625 1.48617188 -2.3828125 0.99609375 C-1.20332031 0.50302734 -1.20332031 0.50302734 0 0 Z " fill="#4C8F68" transform="translate(120,261)"/>
<path d="M0 0 C5.69139902 1.09698167 10.74567937 2.54053077 16 5 C16 5.33 16 5.66 16 6 C11.24444081 6 8.73578478 5.93725511 4.4375 4 C3.61121094 3.62875 2.78492188 3.2575 1.93359375 2.875 C1.29550781 2.58625 0.65742188 2.2975 0 2 C0 1.34 0 0.68 0 0 Z " fill="#53856C" transform="translate(366,257)"/>
<path d="M0 0 C0.66 0 1.32 0 2 0 C0.70677932 5.7607103 -1.37988643 9.33195882 -5 14 C-5.66 13.01 -6.32 12.02 -7 11 C-6.57847656 10.45730469 -6.15695312 9.91460937 -5.72265625 9.35546875 C-5.17480469 8.64003906 -4.62695312 7.92460937 -4.0625 7.1875 C-3.51722656 6.47980469 -2.97195313 5.77210938 -2.41015625 5.04296875 C-0.83143752 2.95874948 -0.83143752 2.95874948 0 0 Z " fill="#E05858" transform="translate(331,334)"/>
<path d="M0 0 C0.33 0 0.66 0 1 0 C1.94089801 5.11243182 1.8920062 9.31407936 1.0625 14.4375 C0.86785156 15.67371094 0.67320312 16.90992188 0.47265625 18.18359375 C0.31667969 19.11300781 0.16070312 20.04242188 0 21 C-0.33 21 -0.66 21 -1 21 C-1.0270203 18.24993392 -1.04684883 15.50013454 -1.0625 12.75 C-1.07087891 11.97269531 -1.07925781 11.19539063 -1.08789062 10.39453125 C-1.09111328 9.64042969 -1.09433594 8.88632812 -1.09765625 8.109375 C-1.10289307 7.41811523 -1.10812988 6.72685547 -1.11352539 6.01464844 C-0.99437971 3.90026102 -0.57618237 2.03358485 0 0 Z " fill="#DA383F" transform="translate(160,271)"/>
<path d="M0 0 C1.125 1.6875 1.125 1.6875 2 4 C1.2578125 6.32421875 1.2578125 6.32421875 0 9 C-0.72748758 11.26476974 -1.43514682 13.53598452 -2.125 15.8125 C-2.47820312 16.97394531 -2.83140625 18.13539063 -3.1953125 19.33203125 C-3.46085938 20.21246094 -3.72640625 21.09289062 -4 22 C-4.33 22 -4.66 22 -5 22 C-4.47458553 14.2501365 -2.44408524 7.3549914 0 0 Z " fill="#48815F" transform="translate(164,127)"/>
<path d="M0 0 C4.67248931 2.82522609 7.65996398 5.67760044 11 10 C9.68 9.67 8.36 9.34 7 9 C7 8.34 7 7.68 7 7 C6.21625 6.87625 5.4325 6.7525 4.625 6.625 C2 6 2 6 0 4 C0 2.68 0 1.36 0 0 Z " fill="#397A54" transform="translate(295,75)"/>
<path d="M0 0 C2.46278801 2.46278801 2.99771255 4.70676982 4 8 C4.99 8 5.98 8 7 8 C7 9.65 7 11.3 7 13 C5.68 12.67 4.36 12.34 3 12 C3 11.34 3 10.68 3 10 C2.01 9.34 1.02 8.68 0 8 C-0.40843923 5.28796348 -0.13336867 2.7562858 0 0 Z " fill="#E25061" transform="translate(213,263)"/>
<path d="M0 0 C5.05255964 0.63156995 9.29593201 2.13459373 14 4 C13.67 4.99 13.34 5.98 13 7 C12.34 7 11.68 7 11 7 C11 6.01 11 5.02 11 4 C10.01 4.33 9.02 4.66 8 5 C5.26187393 4.54451823 2.6798824 3.74685247 0 3 C0 2.01 0 1.02 0 0 Z " fill="#DC4141" transform="translate(274,205)"/>
<path d="M0 0 C2.6570542 3.03463559 3.37529245 4.85311223 3.25 8.875 C3.22421875 9.74640625 3.1984375 10.6178125 3.171875 11.515625 C2.97298048 14.39055483 2.59372871 17.17978862 2 20 C1.67 20 1.34 20 1 20 C0.29867087 13.29980211 -0.11044961 6.73742646 0 0 Z " fill="#7DA58C" transform="translate(259,144)"/>
<path d="M0 0 C0 0.66 0 1.32 0 2 C-5.24385089 3.7479503 -9.47322267 4.19392201 -15 4 C-10.34714182 0.89809455 -5.58467324 -0.33846504 0 0 Z " fill="#72A188" transform="translate(143,255)"/>
<path d="M0 0 C0 0.66 0 1.32 0 2 C0.99 2.33 1.98 2.66 3 3 C3.33 3.66 3.66 4.32 4 5 C2.20767663 4.69128878 0.41615679 4.37790936 -1.375 4.0625 C-2.37273437 3.88847656 -3.37046875 3.71445313 -4.3984375 3.53515625 C-7 3 -7 3 -9 2 C-9.33 2.66 -9.66 3.32 -10 4 C-10 3.01 -10 2.02 -10 1 C-6.59437148 0.22157062 -3.49234244 -0.09978121 0 0 Z " fill="#518E68" transform="translate(281,187)"/>
<path d="M0 0 C0.66 0.33 1.32 0.66 2 1 C1.360625 1.268125 0.72125 1.53625 0.0625 1.8125 C-2.33131686 2.88667752 -2.33131686 2.88667752 -3 6 C-5.21593183 7.71054387 -7.46190652 8.75321724 -10 10 C-10.66 9.67 -11.32 9.34 -12 9 C-8.14126153 5.69250989 -4.27454425 2.7479213 0 0 Z " fill="#5B8D70" transform="translate(218,62)"/>
<path d="M0 0 C2.475 0.99 2.475 0.99 5 2 C5 2.66 5 3.32 5 4 C6.32 3.67 7.64 3.34 9 3 C9 3.99 9 4.98 9 6 C2.375 5.25 2.375 5.25 -1 3 C-0.67 2.01 -0.34 1.02 0 0 Z " fill="#377355" transform="translate(77,392)"/>
<path d="M0 0 C0 0.99 0 1.98 0 3 C-2.1875 4.75 -2.1875 4.75 -5 6 C-7.8125 5.6875 -7.8125 5.6875 -10 5 C-7.48732962 1.23099443 -4.57078644 0 0 0 Z " fill="#E04549" transform="translate(303,368)"/>
<path d="M0 0 C1.65 1.65 3.3 3.3 5 5 C3.6875 7 3.6875 7 2 9 C1.01 9 0.02 9 -1 9 C-0.835 8.2575 -0.67 7.515 -0.5 6.75 C0.11925696 3.80993422 0.11925696 3.80993422 0 0 Z " fill="#438866" transform="translate(307,85)"/>
<path d="M0 0 C0 0.66 0 1.32 0 2 C-2.90600261 3.25664978 -4.79604584 4 -8 4 C-8.33 4.66 -8.66 5.32 -9 6 C-11.64 5.67 -14.28 5.34 -17 5 C-13.87498269 3.29679151 -10.80959616 2.29150949 -7.375 1.375 C-6.41335938 1.11460937 -5.45171875 0.85421875 -4.4609375 0.5859375 C-2 0 -2 0 0 0 Z " fill="#197247" transform="translate(407,443)"/>
<path d="M0 0 C1.9375 0.3125 1.9375 0.3125 4 1 C4.33 1.99 4.66 2.98 5 4 C5.66 4.33 6.32 4.66 7 5 C7.66 5.33 8.32 5.66 9 6 C9.33 6.99 9.66 7.98 10 9 C8.53932801 8.54917531 7.08151968 8.08906463 5.625 7.625 C4.81289063 7.36976563 4.00078125 7.11453125 3.1640625 6.8515625 C1 6 1 6 -1 4 C0.32 4 1.64 4 3 4 C3 3.34 3 2.68 3 2 C2.01 1.67 1.02 1.34 0 1 C0 0.67 0 0.34 0 0 Z " fill="#538A69" transform="translate(315,435)"/>
<path d="M0 0 C-2.34914492 2.34914492 -3.95679446 2.73140357 -7.125 3.625 C-8.03507812 3.88539063 -8.94515625 4.14578125 -9.8828125 4.4140625 C-10.58148438 4.60742188 -11.28015625 4.80078125 -12 5 C-12.33 4.34 -12.66 3.68 -13 3 C-3.44262295 -1.14754098 -3.44262295 -1.14754098 0 0 Z " fill="#DD3B3D" transform="translate(290,377)"/>
<path d="M0 0 C0.721875 0.598125 1.44375 1.19625 2.1875 1.8125 C4.71644556 3.77945766 7.2464526 5.37611307 10 7 C11.34631825 7.98244845 12.68441297 8.97676564 14 10 C8.43677487 9.1570871 2.65497363 7.51496743 -1 3 C-0.67 2.01 -0.34 1.02 0 0 Z " fill="#649880" transform="translate(394,267)"/>
<path d="M0 0 C4.04190048 3.62377284 6.82568758 7.32720955 7.1875 12.875 C7.125625 13.57625 7.06375 14.2775 7 15 C6.34 14.67 5.68 14.34 5 14 C4.375 10.9375 4.375 10.9375 4 8 C3.34 8 2.68 8 2 8 C1.34 5.36 0.68 2.72 0 0 Z " fill="#E35F60" transform="translate(326,242)"/>
<path d="M0 0 C7.38461538 1.35384615 7.38461538 1.35384615 10.5 4.625 C10.995 5.40875 11.49 6.1925 12 7 C11.67 7.66 11.34 8.32 11 9 C9.16384919 7.69144447 7.33114211 6.37805538 5.5 5.0625 C4.4790625 4.33160156 3.458125 3.60070312 2.40625 2.84765625 C1.6121875 2.23792969 0.818125 1.62820313 0 1 C0 0.67 0 0.34 0 0 Z " fill="#538868" transform="translate(47,425)"/>
<path d="M0 0 C3.36329858 0.57987906 4.6723487 1.57924265 7 4 C8.64605826 5.03357147 10.30963442 6.04060332 12 7 C10.1875 7.6875 10.1875 7.6875 8 8 C6.5625 6.75 6.5625 6.75 5 5 C4.113125 4.484375 3.22625 3.96875 2.3125 3.4375 C1.549375 2.963125 0.78625 2.48875 0 2 C0 1.34 0 0.68 0 0 Z " fill="#398159" transform="translate(171,370)"/>
<path d="M0 0 C2.37716982 2.37716982 2.31140657 3.1839703 2.5625 6.4375 C2.78847887 9.23687087 3.10153011 11.30459034 4 14 C3.01 14.66 2.02 15.32 1 16 C0.31798844 10.62915894 -0.11521265 5.41499441 0 0 Z " fill="#4B7E5E" transform="translate(141,299)"/>
<path d="M0 0 C1.00109515 3.31070838 1.10356134 6.30084769 1.0625 9.75 C1.05347656 10.73484375 1.04445313 11.7196875 1.03515625 12.734375 C1.02355469 13.48203125 1.01195312 14.2296875 1 15 C0.34 14.34 -0.32 13.68 -1 13 C-0.67 12.34 -0.34 11.68 0 11 C-0.99 10.67 -1.98 10.34 -3 10 C-2.34 9.67 -1.68 9.34 -1 9 C-1.20625 7.88625 -1.4125 6.7725 -1.625 5.625 C-1.74875 4.42875 -1.8725 3.2325 -2 2 C-1.34 1.34 -0.68 0.68 0 0 Z " fill="#296443" transform="translate(359,288)"/>
<path d="M0 0 C4.455 0.99 4.455 0.99 9 2 C5.25 5 5.25 5 3 5 C2.67 5.66 2.34 6.32 2 7 C1.34 4.69 0.68 2.38 0 0 Z " fill="#1B7447" transform="translate(353,256)"/>
<path d="M0 0 C0.99 0.66 1.98 1.32 3 2 C3 2.66 3 3.32 3 4 C2.34 4 1.68 4 1 4 C1 4.66 1 5.32 1 6 C-0.65 6.33 -2.3 6.66 -4 7 C-4 7.66 -4 8.32 -4 9 C-4.66 9 -5.32 9 -6 9 C-4.47291037 5.56404834 -2.40072955 2.88087546 0 0 Z " fill="#226F46" transform="translate(185,202)"/>
<path d="M0 0 C0.05406122 1.93719378 0.09282025 3.87481921 0.125 5.8125 C0.14820313 6.89144531 0.17140625 7.97039062 0.1953125 9.08203125 C0 12 0 12 -2 15 C-2.33 10.38 -2.66 5.76 -3 1 C-1 0 -1 0 0 0 Z " fill="#77A48C" transform="translate(258,102)"/>
<path d="M0 0 C0.66 0.33 1.32 0.66 2 1 C1.34 5.29 0.68 9.58 0 14 C-0.66 13.67 -1.32 13.34 -2 13 C-2 9.37 -2 5.74 -2 2 C-1.34 2 -0.68 2 0 2 C0 1.34 0 0.68 0 0 Z " fill="#598A6F" transform="translate(244,98)"/>
<path d="M0 0 C3.82097239 0.53069061 6.06171403 1.49701566 9 4 C8.01 4.99 7.02 5.98 6 7 C5.67 6.34 5.34 5.68 5 5 C4.34 5 3.68 5 3 5 C3 4.34 3 3.68 3 3 C1.68 3 0.36 3 -1 3 C-0.67 2.01 -0.34 1.02 0 0 Z " fill="#3F7D5B" transform="translate(335,359)"/>
<path d="M0 0 C1.65 0.33 3.3 0.66 5 1 C4.01 1.495 4.01 1.495 3 2 C2.34227572 5.02934491 2.34227572 5.02934491 2 8 C1.62875 7.34 1.2575 6.68 0.875 6 C-0.90894778 3.64696955 -0.90894778 3.64696955 -4.1875 3.75 C-5.115625 3.8325 -6.04375 3.915 -7 4 C-7 3.67 -7 3.34 -7 3 C-3.535 2.505 -3.535 2.505 0 2 C0 1.34 0 0.68 0 0 Z " fill="#177247" transform="translate(143,255)"/>
<path d="M0 0 C0.66 0 1.32 0 2 0 C2.433125 1.6396875 2.433125 1.6396875 2.875 3.3125 C3.81893204 7.04013845 3.81893204 7.04013845 6 10 C3.03 9.505 3.03 9.505 0 9 C0 6.03 0 3.06 0 0 Z " fill="#528467" transform="translate(262,178)"/>
<path d="M0 0 C2.70459693 5.04858093 3.12234548 8.52713507 2.5625 14.25 C2.40974609 15.86648437 2.40974609 15.86648437 2.25390625 17.515625 C2.17011719 18.33546875 2.08632813 19.1553125 2 20 C1.67 20 1.34 20 1 20 C0.29867087 13.29980211 -0.11044961 6.73742646 0 0 Z " fill="#0C7246" transform="translate(260,126)"/>
<path d="M0 0 C0.33 0 0.66 0 1 0 C1 1.65 1 3.3 1 5 C0.1028125 5.309375 0.1028125 5.309375 -0.8125 5.625 C-3.81018767 7.50926082 -4.61361776 9.81132084 -6 13 C-6.66 13 -7.32 13 -8 13 C-6.42903279 7.97290493 -3.38006951 3.97133531 0 0 Z " fill="#77A28A" transform="translate(183,93)"/>
<path d="M0 0 C1.77226453 0.28284018 3.542788 0.57660498 5.3125 0.875 C6.29863281 1.03742188 7.28476563 1.19984375 8.30078125 1.3671875 C11 2 11 2 14 4 C14 4.66 14 5.32 14 6 C12.41375765 5.57316761 10.8310902 5.13303842 9.25 4.6875 C8.36828125 4.44386719 7.4865625 4.20023437 6.578125 3.94921875 C3.94227495 2.97874669 2.14592674 1.78994356 0 0 Z " fill="#5F8F73" transform="translate(76,442)"/>
<path d="M0 0 C0.66 0.33 1.32 0.66 2 1 C0.515 4.465 0.515 4.465 -1 8 C-0.34 8 0.32 8 1 8 C1.33 10.31 1.66 12.62 2 15 C0.04850921 13.64244119 -0.87644423 12.46186324 -1.4921875 10.16015625 C-2.09345842 6.22256496 -2.41336383 3.40710188 0 0 Z " fill="#E3777A" transform="translate(221,306)"/>
<path d="M0 0 C2.31 0.33 4.62 0.66 7 1 C7 1.99 7 2.98 7 4 C5 5.6875 5 5.6875 3 7 C0 2.25 0 2.25 0 0 Z " fill="#E15456" transform="translate(271,306)"/>
<path d="M0 0 C-1.38801071 3.35435922 -2.88629 5.11290303 -6 7 C-6.99 7 -7.98 7 -9 7 C-7.51191431 2.53574293 -4.79253508 0 0 0 Z " fill="#3F8559" transform="translate(79,290)"/>
<path d="M0 0 C0.7425 0.185625 1.485 0.37125 2.25 0.5625 C4.94990963 0.99203108 6.44631077 0.85122974 9 0 C8.67 1.65 8.34 3.3 8 5 C5.36 4.34 2.72 3.68 0 3 C0 2.01 0 1.02 0 0 Z " fill="#DD5356" transform="translate(269,260)"/>
<path d="M0 0 C4.66714289 1.83025211 8.18765077 3.6497537 12 7 C7.02125936 6.52583422 3.93281242 5.0900669 0 2 C0 1.34 0 0.68 0 0 Z " fill="#E46666" transform="translate(289,210)"/>
<path d="M0 0 C-2.54605302 2.00047023 -4.9664636 3.82572785 -8 5 C-8.99 4.67 -9.98 4.34 -11 4 C-10.34 4 -9.68 4 -9 4 C-9 3.01 -9 2.02 -9 1 C-3.375 -1.125 -3.375 -1.125 0 0 Z " fill="#6E9A82" transform="translate(184,440)"/>
<path d="M0 0 C-6.75 4 -6.75 4 -9 4 C-9 4.66 -9 5.32 -9 6 C-9.99 6 -10.98 6 -12 6 C-12 5.34 -12 4.68 -12 4 C-11.34 4 -10.68 4 -10 4 C-10 3.34 -10 2.68 -10 2 C-3.375 -1.125 -3.375 -1.125 0 0 Z " fill="#64987F" transform="translate(446,430)"/>
<path d="M0 0 C1.98 0.495 1.98 0.495 4 1 C3.67 2.32 3.34 3.64 3 5 C3.99 5.33 4.98 5.66 6 6 C6 6.99 6 7.98 6 9 C2.19333016 7.55609075 0.73397418 5.65047197 -1 2 C-0.67 1.34 -0.34 0.68 0 0 Z " fill="#E2595A" transform="translate(212,316)"/>
<path d="M0 0 C5.03985731 0.44469329 7.37634988 2.71343362 11 6 C10.01 6.33 9.02 6.66 8 7 C4.8125 5.1875 4.8125 5.1875 2 3 C2 2.34 2 1.68 2 1 C1.34 0.67 0.68 0.34 0 0 Z " fill="#DB4546" transform="translate(301,219)"/>
<path d="M0 0 C3.96 0 7.92 0 12 0 C12 0.66 12 1.32 12 2 C7.91556885 3.53166168 4.20544343 2.63081652 0 2 C0 1.34 0 0.68 0 0 Z " fill="#D93438" transform="translate(256,203)"/>
<path d="M0 0 C0.33 0 0.66 0 1 0 C1.08142927 1.7492214 1.13938541 3.49954542 1.1875 5.25 C1.23970703 6.71179688 1.23970703 6.71179688 1.29296875 8.203125 C0.96075202 11.37468742 0.11327721 12.67040307 -2 15 C-2.19392201 9.47322267 -1.7479503 5.24385089 0 0 Z " fill="#528767" transform="translate(240,141)"/>
<path d="M0 0 C-3.03525486 2.02350324 -4.19426202 2.32124018 -7.6875 2.625 C-8.49574219 2.69976562 -9.30398437 2.77453125 -10.13671875 2.8515625 C-10.75160156 2.90054687 -11.36648437 2.94953125 -12 3 C-11.34 2.67 -10.68 2.34 -10 2 C-10 1.34 -10 0.68 -10 0 C-6.33694766 -0.74926071 -3.57644848 -1.2380014 0 0 Z " fill="#5B916F" transform="translate(163,448)"/>
<path d="M0 0 C0.66 0.99 1.32 1.98 2 3 C1.34 3 0.68 3 0 3 C0.33 4.98 0.66 6.96 1 9 C0.34 9 -0.32 9 -1 9 C-0.67 9.99 -0.34 10.98 0 12 C-1.32 11.67 -2.64 11.34 -4 11 C-2.68 7.37 -1.36 3.74 0 0 Z " fill="#588F72" transform="translate(45,334)"/>
<path d="M0 0 C2.64465038 3.1254959 3.84414715 6.08788267 5 10 C4.01 10 3.02 10 2 10 C-1.07692308 4.58461538 -1.07692308 4.58461538 -0.6875 1.625 C-0.460625 1.08875 -0.23375 0.5525 0 0 Z " fill="#56886A" transform="translate(453,328)"/>
<path d="M0 0 C0.33 0 0.66 0 1 0 C0.5547115 5.27315333 -0.08373163 10.01770224 -2 15 C-2.33 15 -2.66 15 -3 15 C-3.3152595 9.01006953 -2.68219822 5.36439644 0 0 Z " fill="#DC4F4D" transform="translate(340,308)"/>
<path d="M0 0 C-2.52788007 2.79872437 -4.20411134 4.45773019 -8 5 C-8.33 3.68 -8.66 2.36 -9 1 C-2.25 -1.125 -2.25 -1.125 0 0 Z " fill="#E46C6D" transform="translate(231,293)"/>
<path d="M0 0 C0.66 0 1.32 0 2 0 C2 0.66 2 1.32 2 2 C2.66 2 3.32 2 4 2 C4 1.34 4 0.68 4 0 C4.66 0.33 5.32 0.66 6 1 C5.67 1.66 5.34 2.32 5 3 C5.66 3 6.32 3 7 3 C6.67 4.32 6.34 5.64 6 7 C3 6 3 6 1.3125 2.9375 C0.879375 1.968125 0.44625 0.99875 0 0 Z " fill="#3A7955" transform="translate(329,219)"/>
<path d="M0 0 C1.43931117 0.45261358 2.87638999 0.91232979 4.3125 1.375 C5.11300781 1.63023437 5.91351563 1.88546875 6.73828125 2.1484375 C9 3 9 3 12 5 C12 5.66 12 6.32 12 7 C7.0682659 6.55166054 3.6807076 4.13973905 0 1 C0 0.67 0 0.34 0 0 Z " fill="#559270" transform="translate(296,196)"/>
<path d="M0 0 C0.33 0 0.66 0 1 0 C1 1.65 1 3.3 1 5 C1.66 5.33 2.32 5.66 3 6 C2.67 7.65 2.34 9.3 2 11 C1.01 11 0.02 11 -1 11 C-1.14285714 3.57142857 -1.14285714 3.57142857 0 0 Z M0 5 C1 7 1 7 1 7 Z " fill="#23603F" transform="translate(462,404)"/>
<path d="M0 0 C3.63 1.65 7.26 3.3 11 5 C11 5.33 11 5.66 11 6 C4.63636364 6.48951049 4.63636364 6.48951049 1.5625 4.125 C0 2 0 2 0 0 Z " fill="#467F5F" transform="translate(352,366)"/>
<path d="M0 0 C1.9375 0.3125 1.9375 0.3125 4 1 C4.33 1.99 4.66 2.98 5 4 C7.00016466 5.20882096 7.00016466 5.20882096 9 6 C8.67 7.32 8.34 8.64 8 10 C6.66370254 8.52351062 5.33103329 7.0437367 4 5.5625 C3.2575 4.73878906 2.515 3.91507812 1.75 3.06640625 C0 1 0 1 0 0 Z " fill="#E88080" transform="translate(176,350)"/>
<path d="M0 0 C0.66 0 1.32 0 2 0 C2 1.32 2 2.64 2 4 C1.34 4 0.68 4 0 4 C0 6.64 0 9.28 0 12 C-0.33 11.34 -0.66 10.68 -1 10 C-1.66 10 -2.32 10 -3 10 C-2.21302675 6.58978257 -1.12880057 3.31114834 0 0 Z " fill="#DD3437" transform="translate(223,304)"/>
<path d="M0 0 C5.75 0.75 5.75 0.75 8 3 C8.70710678 4.64991582 9.37943989 6.31562256 10 8 C9.01 8.495 9.01 8.495 8 9 C7.608125 8.2575 7.21625 7.515 6.8125 6.75 C4.86961158 3.80216929 2.83531533 2.06901389 0 0 Z " fill="#DE4A4E" transform="translate(278,263)"/>
<path d="M0 0 C-0.66 1.32 -1.32 2.64 -2 4 C-3.98 4 -5.96 4 -8 4 C-7 1 -7 1 -5.125 -0.25 C-3 -1 -3 -1 0 0 Z " fill="#DD3D42" transform="translate(217,209)"/>
<path d="M0 0 C0.66 0 1.32 0 2 0 C2.25 6.625 2.25 6.625 0 10 C-0.66 7.69 -1.32 5.38 -2 3 C-1.34 2.67 -0.68 2.34 0 2 C0 1.34 0 0.68 0 0 Z " fill="#2C6444" transform="translate(238,159)"/>
<path d="M0 0 C-0.1875 1.875 -0.1875 1.875 -1 4 C-3.5 5.125 -3.5 5.125 -6 6 C-6.33 6.66 -6.66 7.32 -7 8 C-6.65930765 4.84859577 -6.41923159 3.39218439 -4.0625 1.1875 C-2 0 -2 0 0 0 Z " fill="#477F61" transform="translate(120,356)"/>
<path d="M0 0 C0.66 0.33 1.32 0.66 2 1 C-2.30055249 5.76132597 -2.30055249 5.76132597 -6 6 C-6.99 5.34 -7.98 4.68 -9 4 C-7.54618103 3.30300448 -6.08677047 2.61766134 -4.625 1.9375 C-3.40683594 1.36322266 -3.40683594 1.36322266 -2.1640625 0.77734375 C-1.44992187 0.52082031 -0.73578125 0.26429688 0 0 Z " fill="#DD5556" transform="translate(276,342)"/>
<path d="M0 0 C0.66 0 1.32 0 2 0 C2 2.31 2 4.62 2 7 C0.68 7.33 -0.64 7.66 -2 8 C-1.125 1.125 -1.125 1.125 0 0 Z " fill="#30644A" transform="translate(351,331)"/>
<path d="M0 0 C1.98 0 3.96 0 6 0 C3.78631706 2.21368294 2.06983375 3.86552921 -1.11328125 4.265625 C-3.07746787 4.25166986 -5.0402625 4.13286356 -7 4 C-7 3.67 -7 3.34 -7 3 C-5.02 3 -3.04 3 -1 3 C-0.67 2.01 -0.34 1.02 0 0 Z " fill="#EB9194" transform="translate(271,284)"/>
<path d="M0 0 C0 0.66 0 1.32 0 2 C-1.96875 3.5078125 -1.96875 3.5078125 -4.5 5.125 C-5.3353125 5.66382812 -6.170625 6.20265625 -7.03125 6.7578125 C-7.6809375 7.16773437 -8.330625 7.57765625 -9 8 C-9.66 7.67 -10.32 7.34 -11 7 C-10.06894211 6.01470572 -9.12987519 5.03697556 -8.1875 4.0625 C-7.66542969 3.51722656 -7.14335937 2.97195312 -6.60546875 2.41015625 C-4.52995249 0.58713589 -2.75897147 0 0 0 Z " fill="#5D9779" transform="translate(195,84)"/>
<path d="M0 0 C5.94 1.485 5.94 1.485 12 3 C12 3.33 12 3.66 12 4 C7.17639811 4.19294408 3.50353262 3.75747614 -1 2 C-0.67 1.34 -0.34 0.68 0 0 Z " fill="#649A7F" transform="translate(103,449)"/>
<path d="M0 0 C-3.53411321 2.12046792 -6.94393835 2.53199289 -11 3 C-10.67 2.01 -10.34 1.02 -10 0 C-6.30458414 -0.95024979 -3.69541586 -0.95024979 0 0 Z " fill="#609074" transform="translate(409,446)"/>
<path d="M0 0 C4.95 1.98 4.95 1.98 10 4 C5.59232396 5.10191901 4.1077065 4.58706842 0 3 C0 2.01 0 1.02 0 0 Z " fill="#56856A" transform="translate(390,384)"/>
<path d="M0 0 C3 1 3 1 4 3 C6.52733235 3.65555119 6.52733235 3.65555119 9 4 C9 4.99 9 5.98 9 7 C5.59687262 5.94124926 2.98646769 4.99097846 0 3 C0 2.01 0 1.02 0 0 Z " fill="#E36263" transform="translate(197,368)"/>
<path d="M0 0 C-1.4638611 4.39158329 -3.97831338 4.87947433 -8 7 C-8 6.01 -8 5.02 -8 4 C-7.34 4 -6.68 4 -6 4 C-6 3.34 -6 2.68 -6 2 C-2.25 0 -2.25 0 0 0 Z " fill="#407B59" transform="translate(148,337)"/>
<path d="M0 0 C1.32 0.66 2.64 1.32 4 2 C4 3.65 4 5.3 4 7 C3.01 7.33 2.02 7.66 1 8 C0.34 6.68 -0.32 5.36 -1 4 C-0.34 4 0.32 4 1 4 C0.67 2.68 0.34 1.36 0 0 Z " fill="#238243" transform="translate(423,290)"/>
<path d="M0 0 C3.0831351 1.19899698 6.06279492 2.47700477 9 4 C9 4.33 9 4.66 9 5 C6.69 5 4.38 5 2 5 C1.34 3.35 0.68 1.7 0 0 Z " fill="#E46C6E" transform="translate(223,278)"/>
<path d="M0 0 C0.68707555 2.49064888 1 4.37886292 1 7 C0.34 7 -0.32 7 -1 7 C-1 8.98 -1 10.96 -1 13 C-1.33 13 -1.66 13 -2 13 C-2.05416188 11.39620659 -2.09286638 9.79188594 -2.125 8.1875 C-2.14820313 7.29417969 -2.17140625 6.40085937 -2.1953125 5.48046875 C-2 3 -2 3 0 0 Z " fill="#EA707B" transform="translate(224,257)"/>
<path d="M0 0 C0.99 0.495 0.99 0.495 2 1 C2 2.32 2 3.64 2 5 C3.32 5 4.64 5 6 5 C5.34 6.65 4.68 8.3 4 10 C1.2027092 7.93243723 0.97307727 6.85559629 0.3125 3.3125 C0.209375 2.219375 0.10625 1.12625 0 0 Z M2 0 C4 1 4 1 4 1 Z " fill="#337F57" transform="translate(161,214)"/>
<path d="M0 0 C0.66 0.33 1.32 0.66 2 1 C1.67 1.99 1.34 2.98 1 4 C1.99 4.66 2.98 5.32 4 6 C3.01 6.33 2.02 6.66 1 7 C0.38125 6.2884375 0.38125 6.2884375 -0.25 5.5625 C-2.182185 3.83733482 -3.48192275 3.43415125 -6 3 C-6 2.34 -6 1.68 -6 1 C-4.7934375 1.0309375 -4.7934375 1.0309375 -3.5625 1.0625 C-1.06645115 1.29633621 -1.06645115 1.29633621 0 0 Z " fill="#4F8466" transform="translate(318,205)"/>
<path d="M0 0 C3.63094642 2.64960955 5.89851796 5.01824456 8 9 C5.125 8.4375 5.125 8.4375 2 7 C0.625 3.375 0.625 3.375 0 0 Z " fill="#709B85" transform="translate(312,91)"/>
<path d="M0 0 C3.5 -0.3125 3.5 -0.3125 7 0 C7.66 0.66 8.32 1.32 9 2 C5.37 2.33 1.74 2.66 -2 3 C-1.34 2.01 -0.68 1.02 0 0 Z " fill="#79A48D" transform="translate(142,450)"/>
<path d="M0 0 C2.5 1.8125 2.5 1.8125 5 4 C5 4.99 5 5.98 5 7 C5.66 7 6.32 7 7 7 C6.67 7.66 6.34 8.32 6 9 C1.2 5.67692308 1.2 5.67692308 0.1875 2.25 C0.125625 1.5075 0.06375 0.765 0 0 Z " fill="#317952" transform="translate(275,409)"/>
<path d="M0 0 C0.66 0.33 1.32 0.66 2 1 C2.625 3.0625 2.625 3.0625 3 5 C1.35 5.66 -0.3 6.32 -2 7 C-2.33 6.01 -2.66 5.02 -3 4 C-2.01 3.67 -1.02 3.34 0 3 C0 2.01 0 1.02 0 0 Z " fill="#226C45" transform="translate(408,392)"/>
<path d="M0 0 C0.99 0.495 0.99 0.495 2 1 C2.75 3.875 2.75 3.875 3 7 C2.34 7.99 1.68 8.98 1 10 C0 9 0 9 -0.09765625 6.93359375 C-0.08605469 6.10988281 -0.07445312 5.28617188 -0.0625 4.4375 C-0.05347656 3.61121094 -0.04445313 2.78492188 -0.03515625 1.93359375 C-0.02355469 1.29550781 -0.01195312 0.65742188 0 0 Z " fill="#6C9A7D" transform="translate(261,167)"/>
<path d="M0 0 C0.66 0 1.32 0 2 0 C2.99 2.97 3.98 5.94 5 9 C4.01 9 3.02 9 2 9 C0.14223235 5.86501708 -0.20140476 3.62528568 0 0 Z " fill="#26593B" transform="translate(333,126)"/>
<path d="M0 0 C0.99 0.33 1.98 0.66 3 1 C3 2.98 3 4.96 3 7 C2.01 7 1.02 7 0 7 C0 4.69 0 2.38 0 0 Z " fill="#2C6D4E" transform="translate(241,111)"/>
<path d="M0 0 C0.33 0.66 0.66 1.32 1 2 C2.65 2 4.3 2 6 2 C4.02579865 4.52259061 3.03254358 4.9929808 -0.1875 5.6875 C-1.5796875 5.8421875 -1.5796875 5.8421875 -3 6 C-3 5.34 -3 4.68 -3 4 C-2.01 3.67 -1.02 3.34 0 3 C0 2.01 0 1.02 0 0 Z " fill="#1E6D44" transform="translate(94,390)"/>
<path d="M0 0 C1.32 0.66 2.64 1.32 4 2 C3.34 2 2.68 2 2 2 C2 2.66 2 3.32 2 4 C-0.64 4.33 -3.28 4.66 -6 5 C-5.195625 4.360625 -4.39125 3.72125 -3.5625 3.0625 C-1.7249496 1.59396498 -1.7249496 1.59396498 0 0 Z " fill="#599874" transform="translate(119,378)"/>
<path d="M0 0 C1.46224799 0.42423244 2.91973412 0.86490245 4.375 1.3125 C5.18710937 1.55613281 5.99921875 1.79976563 6.8359375 2.05078125 C9 3 9 3 11 6 C6.48986609 5.46939601 3.61621781 3.69113883 0 1 C0 0.67 0 0.34 0 0 Z " fill="#6DA08B" transform="translate(387,363)"/>
<path d="M0 0 C-2.97 2.475 -2.97 2.475 -6 5 C-6.33 3.35 -6.66 1.7 -7 0 C-3.86650268 -1.04449911 -3.01031744 -0.93423645 0 0 Z " fill="#206B46" transform="translate(339,362)"/>
<path d="M0 0 C0.99 0 1.98 0 3 0 C3.33 0.66 3.66 1.32 4 2 C5.89533342 2.46523063 5.89533342 2.46523063 8.0625 2.625 C9.361875 2.74875 10.66125 2.8725 12 3 C12 3.33 12 3.66 12 4 C8.04 4 4.08 4 0 4 C0 2.68 0 1.36 0 0 Z " fill="#E2222B" transform="translate(238,300)"/>
<path d="M0 0 C-0.66 1.32 -1.32 2.64 -2 4 C-4.64 4 -7.28 4 -10 4 C-9 2 -9 2 -6.125 0.875 C-3 0 -3 0 0 0 Z " fill="#EB6165" transform="translate(277,294)"/>
<path d="M0 0 C1.32 0.66 2.64 1.32 4 2 C2.35 2.33 0.7 2.66 -1 3 C-0.67 5.31 -0.34 7.62 0 10 C-1.9451 7.08235 -2.45276317 5.37462715 -3 2 C-2.01 1.34 -1.02 0.68 0 0 Z " fill="#738E7C" transform="translate(353,253)"/>
<path d="M0 0 C0.66 0.33 1.32 0.66 2 1 C2 4.3 2 7.6 2 11 C-0.19963566 8.80036434 -0.57049648 8.00652461 -1 5 C-0.5625 2.25 -0.5625 2.25 0 0 Z " fill="#598B70" transform="translate(241,118)"/>
<path d="M0 0 C2.79872437 2.52788007 4.45773019 4.20411134 5 8 C4.01 8 3.02 8 2 8 C0.74335022 5.09399739 0 3.20395416 0 0 Z " fill="#69987E" transform="translate(325,109)"/>
<path d="M0 0 C2.97 0.99 5.94 1.98 9 3 C8.01 3.66 7.02 4.32 6 5 C2.93369336 4.1025444 1.26961192 3.26961192 -1 1 C-0.67 0.67 -0.34 0.34 0 0 Z " fill="#568C6D" transform="translate(261,53)"/>
<path d="M0 0 C2.97 0.33 5.94 0.66 9 1 C9 1.33 9 1.66 9 2 C5.37 2.33 1.74 2.66 -2 3 C-1.34 2.67 -0.68 2.34 0 2 C0 1.34 0 0.68 0 0 Z " fill="#6E9C81" transform="translate(389,448)"/>
<path d="M0 0 C0.99 0.66 1.98 1.32 3 2 C3 2.99 3 3.98 3 5 C2.34 5 1.68 5 1 5 C0.67 5.66 0.34 6.32 0 7 C-0.66 6.01 -1.32 5.02 -2 4 C-1.34 2.68 -0.68 1.36 0 0 Z " fill="#397A55" transform="translate(44,417)"/>
<path d="M0 0 C0.99 0 1.98 0 3 0 C1.70700306 2.88437779 0.34058637 4.87219421 -2 7 C-2.99 6.34 -3.98 5.68 -5 5 C-4.01 4.67 -3.02 4.34 -2 4 C-0.79117904 1.99983534 -0.79117904 1.99983534 0 0 Z " fill="#187448" transform="translate(223,407)"/>
<path d="M0 0 C2.475 0.495 2.475 0.495 5 1 C4.67 2.32 4.34 3.64 4 5 C2.68 5 1.36 5 0 5 C0 3.35 0 1.7 0 0 Z " fill="#1B5F3E" transform="translate(75,387)"/>
<path d="M0 0 C0.99 0 1.98 0 3 0 C3.33 1.98 3.66 3.96 4 6 C3.01 6.33 2.02 6.66 1 7 C0.67 4.69 0.34 2.38 0 0 Z " fill="#437B5D" transform="translate(420,386)"/>
<path d="M0 0 C0.33 0.66 0.66 1.32 1 2 C-1.17424117 4.50037734 -2.73045798 5.43628586 -6 6 C-4.95125002 3.37812506 -4.35068687 2.20628639 -1.875 0.75 C-1.25625 0.5025 -0.6375 0.255 0 0 Z " fill="#53896E" transform="translate(306,385)"/>
<path d="M0 0 C1.32 0 2.64 0 4 0 C4.66 2.64 5.32 5.28 6 8 C3.33264727 5.51047079 1.44253657 3.36591866 0 0 Z " fill="#E87576" transform="translate(169,340)"/>
<path d="M0 0 C2.64752004 2.57784846 4.94432065 4.91648098 7 8 C4.625 7.375 4.625 7.375 2 6 C0.6875 2.875 0.6875 2.875 0 0 Z " fill="#639A7D" transform="translate(434,300)"/>
<path d="M0 0 C0.33 0.99 0.66 1.98 1 3 C-1.97 3 -4.94 3 -8 3 C-8 2.34 -8 1.68 -8 1 C-2.25 0 -2.25 0 0 0 Z " fill="#E3666A" transform="translate(250,287)"/>
<path d="M0 0 C0.66 0 1.32 0 2 0 C2.625 3.375 2.625 3.375 3 7 C2.34 7.66 1.68 8.32 1 9 C0.67 6.03 0.34 3.06 0 0 Z " fill="#46815E" transform="translate(354,265)"/>
<path d="M0 0 C0.33 0 0.66 0 1 0 C1 3.63 1 7.26 1 11 C0.01 10.01 -0.98 9.02 -2 8 C-1.79846293 5.15124622 -0.85624823 2.74900747 0 0 Z " fill="#3E7856" transform="translate(342,188)"/>
<path d="M0 0 C1.9375 0.8125 1.9375 0.8125 4 2 C4.33 2.99 4.66 3.98 5 5 C0.545 4.01 0.545 4.01 -4 3 C-2.68 2.01 -1.36 1.02 0 0 Z " fill="#197448" transform="translate(281,185)"/>
<path d="M0 0 C0.99 0.66 1.98 1.32 3 2 C-1.75 6 -1.75 6 -4 6 C-3.6875 4.125 -3.6875 4.125 -3 2 C-2.01 1.34 -1.02 0.68 0 0 Z " fill="#427D5A" transform="translate(453,421)"/>
<path d="M0 0 C1.32 0.66 2.64 1.32 4 2 C4 3.65 4 5.3 4 7 C2.35 5.35 0.7 3.7 -1 2 C-0.67 1.34 -0.34 0.68 0 0 Z " fill="#609677" transform="translate(268,402)"/>
<path d="M0 0 C6.15234375 0.5859375 6.15234375 0.5859375 8 1 C8.33 1.66 8.66 2.32 9 3 C5.625 3.1875 5.625 3.1875 2 3 C1.34 2.01 0.68 1.02 0 0 Z " fill="#3D7556" transform="translate(207,394)"/>
<path d="M0 0 C1.32 0 2.64 0 4 0 C4 0.66 4 1.32 4 2 C4.66 2 5.32 2 6 2 C5.67 2.99 5.34 3.98 5 5 C2.525 4.01 2.525 4.01 0 3 C0 2.01 0 1.02 0 0 Z " fill="#3C7353" transform="translate(402,390)"/>
<path d="M0 0 C0.66 0 1.32 0 2 0 C2 1.32 2 2.64 2 4 C2.66 4.33 3.32 4.66 4 5 C2.68 5.33 1.36 5.66 0 6 C-0.66 4.68 -1.32 3.36 -2 2 C-1.34 2 -0.68 2 0 2 C0 1.34 0 0.68 0 0 Z " fill="#1D7147" transform="translate(355,321)"/>
<path d="M0 0 C0.66 0 1.32 0 2 0 C2.33 2.31 2.66 4.62 3 7 C2.01 7.66 1.02 8.32 0 9 C0 6.03 0 3.06 0 0 Z " fill="#4F8362" transform="translate(357,281)"/>
<path d="M0 0 C1.9451 2.91765 2.45276317 4.62537285 3 8 C1.68 7.67 0.36 7.34 -1 7 C-1 4.37886292 -0.68707555 2.49064888 0 0 Z " fill="#1D7247" transform="translate(235,175)"/>
<path d="M0 0 C0.99 0.66 1.98 1.32 3 2 C1.35 3.65 -0.3 5.3 -2 7 C-2.33 6.01 -2.66 5.02 -3 4 C-1.5625 1.8125 -1.5625 1.8125 0 0 Z " fill="#478360" transform="translate(226,407)"/>
<path d="M0 0 C0.33 0.66 0.66 1.32 1 2 C1.66 2.33 2.32 2.66 3 3 C0.69 3.33 -1.62 3.66 -4 4 C-4 3.01 -4 2.02 -4 1 C-2.68 0.67 -1.36 0.34 0 0 Z " fill="#4A8A63" transform="translate(107,384)"/>
<path d="M0 0 C0.33 1.32 0.66 2.64 1 4 C-0.65 4 -2.3 4 -4 4 C-4 3.34 -4 2.68 -4 2 C-2.68 1.34 -1.36 0.68 0 0 Z M-6 4 C-5.34 4 -4.68 4 -4 4 C-4.33 4.66 -4.66 5.32 -5 6 C-5.33 5.34 -5.66 4.68 -6 4 Z " fill="#206F47" transform="translate(112,360)"/>
<path d="M0 0 C0.99 0 1.98 0 3 0 C1.63016497 3.16115776 1.0109362 3.9927092 -2 6 C-1.125 1.125 -1.125 1.125 0 0 Z " fill="#E87374" transform="translate(316,355)"/>
<path d="M0 0 C1.32 0.33 2.64 0.66 4 1 C4 1.99 4 2.98 4 4 C2.02 4.33 0.04 4.66 -2 5 C-1.34 3.35 -0.68 1.7 0 0 Z " fill="#225B3C" transform="translate(41,346)"/>
<path d="M0 0 C0.33 0.99 0.66 1.98 1 3 C-0.375 5.6875 -0.375 5.6875 -2 8 C-2.33 8 -2.66 8 -3 8 C-3.36923077 3.44615385 -3.36923077 3.44615385 -1.5 1.1875 C-1.005 0.795625 -0.51 0.40375 0 0 Z " fill="#D83638" transform="translate(336,324)"/>
<path d="M0 0 C0.78375 0.04125 1.5675 0.0825 2.375 0.125 C1.2303125 1.0221875 1.2303125 1.0221875 0.0625 1.9375 C-1.9733575 3.59459332 -3.8228279 5.22797674 -5.625 7.125 C-4.53409091 0.21590909 -4.53409091 0.21590909 0 0 Z " fill="#E46D6D" transform="translate(220.625,297.875)"/>
<path d="M0 0 C1.98 0 3.96 0 6 0 C5.01 1.485 5.01 1.485 4 3 C1.375 3.1875 1.375 3.1875 -1 3 C-0.67 2.01 -0.34 1.02 0 0 Z " fill="#E37E7C" transform="translate(233,253)"/>
<path d="M0 0 C0.66 0 1.32 0 2 0 C1.67 0.66 1.34 1.32 1 2 C0.67 1.34 0.34 0.68 0 0 Z " fill="#E24747" transform="translate(254,343)"/>
<path d="" fill="#FF7F7F" transform="translate(0,0)"/>
<path d="" fill="#FF7F7F" transform="translate(0,0)"/>
<path d="M0 0 C2 1 2 1 2 1 Z " fill="#7FBFBF" transform="translate(314,209)"/>
<path d="" fill="#808080" transform="translate(0,0)"/>
<path d="" fill="#00FF00" transform="translate(0,0)"/>
<path d="" fill="#808080" transform="translate(0,0)"/>
<path d="" fill="#408040" transform="translate(0,0)"/>
<path d="" fill="#808080" transform="translate(0,0)"/>
<path d="" fill="#000000" transform="translate(0,0)"/>
<path d="" fill="#00FF00" transform="translate(0,0)"/>
<path d="" fill="#FF0000" transform="translate(0,0)"/>
<path d="" fill="#FF0000" transform="translate(0,0)"/>
<path d="" fill="#FF0000" transform="translate(0,0)"/>
<path d="" fill="#FF0000" transform="translate(0,0)"/>
<path d="" fill="#FFFFFF" transform="translate(0,0)"/>
<path d="" fill="#000000" transform="translate(0,0)"/>
</svg>
